{"glyphs":{"0":{"ha":751,"x_min":26,"x_max":728,"o":"m 728 494 q 706 683 728 592 q 640 846 683 775 q 530 960 596 917 q 376 1003 464 1003 q 223 960 289 1003 q 113 846 157 917 q 48 683 69 775 q 26 494 26 592 q 48 307 26 399 q 113 144 69 215 q 223 30 157 74 q 376 -14 289 -14 q 530 30 464 -14 q 640 145 596 74 q 706 308 683 217 q 728 494 728 399 m 83 494 q 102 660 83 579 q 158 804 121 740 q 251 907 196 868 q 376 946 306 946 q 503 907 449 946 q 596 804 558 868 q 652 660 633 740 q 671 494 671 579 q 652 328 671 410 q 596 184 633 247 q 503 82 558 121 q 376 43 449 43 q 251 82 306 43 q 158 184 196 121 q 102 328 121 247 q 83 494 83 410 z "},"1":{"ha":751,"x_min":271,"x_max":497,"o":"m 413 990 l 271 990 l 271 940 l 356 940 l 356 50 l 271 50 l 271 0 l 497 0 l 497 50 l 413 50 l 413 990 z "},"2":{"ha":751,"x_min":89,"x_max":681,"o":"m 100 765 l 164 765 q 189 831 172 799 q 233 888 206 863 q 299 927 260 913 q 392 942 338 942 q 489 928 446 942 q 562 889 532 914 q 608 830 592 864 q 624 757 624 796 q 608 677 624 713 q 565 610 592 642 q 501 550 538 579 q 422 489 464 521 q 324 412 372 451 q 233 328 275 372 q 159 232 190 283 q 114 117 128 181 l 89 0 l 681 0 l 681 57 l 171 57 l 182 106 q 224 210 196 164 q 289 297 251 257 q 370 372 326 336 q 458 443 414 407 q 540 510 500 476 q 612 582 581 544 q 662 663 643 619 q 681 757 681 706 q 663 848 681 804 q 608 925 644 892 q 517 978 571 958 q 392 997 463 997 q 269 976 321 997 q 183 922 218 956 q 128 848 149 889 q 100 765 108 807 z "},"3":{"ha":751,"x_min":71,"x_max":675,"o":"m 82 782 l 140 782 q 158 840 144 811 q 199 894 172 869 q 270 933 226 918 q 376 949 314 949 q 547 898 481 949 q 613 754 613 847 q 593 668 613 704 q 544 608 574 632 q 476 574 514 585 q 403 563 439 563 l 317 563 l 317 506 l 403 506 q 481 490 442 506 q 550 443 519 474 q 599 368 581 413 q 618 267 618 324 q 595 163 618 204 q 537 94 572 121 q 458 57 501 68 q 374 46 414 46 q 203 92 265 46 q 129 210 142 139 l 71 210 q 98 126 76 167 q 157 56 119 86 q 249 7 194 25 q 376 -11 303 -11 q 484 5 431 -11 q 580 55 538 21 q 649 142 622 89 q 675 267 675 194 q 660 370 675 325 q 619 449 644 415 q 563 503 594 482 q 501 533 532 524 q 554 554 525 538 q 609 599 583 571 q 652 665 635 626 q 669 754 669 704 q 649 854 669 808 q 590 933 628 900 q 497 985 551 967 q 376 1004 443 1004 q 247 983 300 1004 q 158 930 193 963 q 106 858 124 897 q 82 782 88 819 z "},"4":{"ha":751,"x_min":57,"x_max":690,"o":"m 603 297 l 603 1006 l 560 1006 l 57 281 l 57 242 l 544 242 l 544 57 l 488 57 l 488 0 l 658 0 l 658 57 l 603 57 l 603 242 l 690 242 l 690 297 l 603 297 m 544 297 l 136 297 l 544 882 l 544 297 z "},"5":{"ha":751,"x_min":40,"x_max":713,"o":"m 214 992 l 131 599 l 182 583 q 264 622 222 610 q 361 633 306 633 q 473 612 419 633 q 567 551 526 590 q 632 458 608 513 q 656 338 656 403 q 634 224 656 278 q 573 131 613 171 q 479 67 533 90 q 361 43 425 43 q 266 58 308 43 q 190 97 224 72 q 131 154 156 122 q 92 219 107 186 l 40 196 q 86 119 57 157 q 156 52 115 82 q 247 4 196 22 q 361 -14 299 -14 q 503 15 439 -14 q 615 92 568 43 q 687 203 661 140 q 713 338 713 267 q 685 482 713 417 q 609 594 657 547 q 498 665 561 640 q 363 690 435 690 q 260 677 300 690 q 196 651 219 664 l 257 931 l 569 931 l 569 858 l 626 858 l 626 992 l 214 992 z "},"6":{"ha":751,"x_min":44,"x_max":722,"o":"m 618 921 l 638 978 q 579 990 615 985 q 490 994 543 994 q 297 953 381 994 q 158 835 214 913 q 73 648 101 758 q 44 397 44 538 q 69 219 44 297 q 140 88 94 142 q 249 7 185 35 q 390 -21 313 -21 q 528 6 467 -21 q 633 80 590 33 q 699 190 676 126 q 722 326 722 253 q 701 453 722 393 q 639 558 681 513 q 535 631 597 604 q 390 658 474 658 q 291 646 336 658 q 210 613 246 633 q 150 565 175 592 q 110 513 125 539 q 141 673 118 596 q 208 809 164 750 q 319 903 251 868 q 482 938 386 938 q 563 933 532 938 q 618 921 593 928 m 103 365 q 105 401 103 389 q 108 422 107 413 q 146 485 122 453 q 203 544 169 518 q 284 586 238 569 q 390 603 331 603 q 513 578 461 603 q 599 515 565 554 q 650 426 633 475 q 667 326 667 376 q 648 213 667 267 q 594 117 629 158 q 507 52 558 76 q 390 28 456 28 q 272 57 325 28 q 181 133 218 86 q 123 241 143 181 q 103 365 103 301 z "},"7":{"ha":751,"x_min":53,"x_max":721,"o":"m 721 992 l 53 992 l 53 840 l 110 840 l 110 936 l 643 936 q 502 778 569 863 q 384 588 435 693 q 303 351 333 482 q 272 57 272 221 l 193 57 l 193 0 l 406 0 l 406 57 l 329 57 q 357 333 329 210 q 435 560 385 456 q 558 758 486 665 q 721 943 631 851 l 721 992 z "},"8":{"ha":751,"x_min":65,"x_max":685,"o":"m 669 758 q 649 855 669 810 q 590 933 628 900 q 497 985 551 967 q 375 1004 442 1004 q 253 985 308 1004 q 160 933 199 967 q 101 855 122 900 q 81 757 81 810 q 100 665 81 704 q 148 598 119 625 q 209 555 176 571 q 268 533 242 539 q 205 506 240 525 q 138 453 169 486 q 86 376 107 421 q 65 272 65 331 q 86 168 65 219 q 147 77 107 117 q 244 13 186 38 q 375 -11 301 -11 q 508 13 450 -11 q 605 77 565 38 q 665 168 644 117 q 685 272 685 219 q 663 378 685 332 q 608 456 640 424 q 539 508 575 489 q 475 533 503 526 q 534 554 500 539 q 598 597 568 569 q 649 663 628 624 q 669 758 669 703 m 613 758 q 598 688 613 722 q 553 628 583 654 q 479 585 524 601 q 375 568 435 568 q 272 585 317 568 q 198 628 228 601 q 153 688 168 654 q 139 758 139 722 q 153 828 139 793 q 198 889 168 863 q 272 932 228 915 q 375 949 317 949 q 479 932 435 949 q 553 889 524 915 q 598 828 583 863 q 613 758 613 793 m 621 269 q 606 188 621 228 q 560 116 590 147 q 483 65 529 85 q 375 46 436 46 q 268 65 314 46 q 192 116 222 85 q 146 188 161 147 q 131 269 131 228 q 146 351 131 311 q 192 423 161 392 q 268 474 222 454 q 375 493 314 493 q 483 474 436 493 q 560 423 529 454 q 606 351 590 392 q 621 269 621 311 z "},"9":{"ha":751,"x_min":50,"x_max":728,"o":"m 154 65 l 135 8 q 193 -3 157 1 q 282 -8 229 -8 q 475 33 392 -8 q 615 151 558 74 q 699 338 671 228 q 728 589 728 449 q 703 767 728 689 q 633 898 678 844 q 524 979 588 951 q 382 1007 460 1007 q 244 980 306 1007 q 139 906 182 953 q 73 796 96 860 q 50 660 50 732 q 71 533 50 593 q 133 428 92 474 q 237 355 175 382 q 382 328 299 328 q 481 340 436 328 q 562 374 526 353 q 622 420 597 394 q 663 474 647 446 q 631 313 654 390 q 565 177 608 236 q 453 83 521 118 q 290 49 386 49 q 210 53 240 49 q 154 65 179 58 m 669 621 q 667 585 669 597 q 664 564 665 574 q 626 500 650 532 q 569 442 603 468 q 488 400 535 417 q 382 383 442 383 q 259 408 311 383 q 173 472 207 432 q 122 560 139 511 q 106 660 106 610 q 124 774 106 719 q 178 869 143 828 q 265 934 214 910 q 382 958 317 958 q 501 929 447 958 q 592 853 554 900 q 649 745 629 806 q 669 621 669 685 z "},"\u0007":{"ha":694,"x_min":0,"x_max":0,"o":""},"\u0005":{"ha":503,"x_min":113,"x_max":411,"o":"m 263 874 q 345 892 307 874 q 411 943 383 911 l 386 974 q 328 932 361 946 q 263 918 296 918 q 199 934 228 918 q 142 976 169 950 l 113 943 q 178 893 140 913 q 263 874 217 874 z "},"\u0006":{"ha":233,"x_min":65,"x_max":165,"o":"m 165 931 q 151 966 165 951 q 115 981 136 981 q 80 966 94 981 q 65 931 65 951 q 80 895 65 910 q 115 881 94 881 q 151 895 136 881 q 165 931 165 910 z "},"\b":{"ha":347,"x_min":63,"x_max":290,"o":"m 290 926 q 257 1007 290 974 q 176 1040 224 1040 q 96 1007 129 1040 q 63 926 63 974 q 96 846 63 879 q 176 813 129 813 q 257 846 224 813 q 290 926 290 879 m 90 926 q 115 988 90 963 q 176 1013 140 1013 q 238 988 213 1013 q 263 926 263 963 q 238 865 263 890 q 176 840 213 840 q 115 865 140 840 q 90 926 90 890 z "},"\n":{"ha":413,"x_min":61,"x_max":379,"o":"m 217 1043 l 164 1067 l 61 844 l 113 821 l 217 1043 m 379 1043 l 328 1067 l 224 844 l 275 821 l 379 1043 z "},"\u000b":{"ha":290,"x_min":54,"x_max":231,"o":"m 110 -103 q 124 -45 110 -69 q 156 0 138 -21 l 99 0 q 70 -46 86 -17 q 54 -115 54 -75 q 83 -183 54 -156 q 156 -211 111 -211 q 199 -201 179 -211 q 231 -175 219 -190 l 231 -119 q 203 -148 221 -135 q 165 -161 185 -161 q 127 -147 144 -161 q 110 -103 110 -133 z "},"\f":{"ha":489,"x_min":64,"x_max":421,"o":"m 260 821 l 421 985 l 389 1017 l 240 871 l 94 1017 l 64 983 l 226 821 l 260 821 z "},"\r":{"ha":346,"x_min":65,"x_max":292,"o":"m 207 715 l 65 715 l 65 658 l 150 658 l 150 57 l 65 57 l 65 0 l 292 0 l 292 57 l 207 57 l 207 715 z "},"\u0019":{"ha":715,"x_min":32,"x_max":711,"o":"m 88 0 l 711 992 l 656 992 l 32 0 l 88 0 z "},"\u001a":{"ha":592,"x_min":36,"x_max":568,"o":"m 263 50 l 178 50 l 178 667 l 426 667 l 426 50 l 342 50 l 342 0 l 568 0 l 568 50 l 483 50 l 483 715 l 178 715 l 178 867 q 213 949 178 919 q 301 978 247 978 q 392 950 357 978 q 426 867 426 922 l 426 793 l 483 793 l 483 872 q 435 987 483 943 q 301 1031 386 1031 q 233 1019 265 1031 q 175 988 200 1008 q 135 939 150 968 q 121 872 121 910 l 121 715 l 43 715 l 43 667 l 121 667 l 121 50 l 36 50 l 36 0 l 263 0 l 263 50 z "},"\u001b":{"ha":592,"x_min":36,"x_max":568,"o":"m 178 667 l 311 667 l 311 715 l 178 715 l 178 868 q 213 951 178 922 q 301 979 247 979 q 392 951 357 979 q 426 868 426 924 l 426 50 l 342 50 l 342 0 l 568 0 l 568 50 l 483 50 l 483 872 q 435 987 483 943 q 301 1031 386 1031 q 233 1019 265 1031 q 175 988 200 1008 q 135 939 150 968 q 121 872 121 910 l 121 715 l 43 715 l 43 667 l 121 667 l 121 50 l 36 50 l 36 0 l 263 0 l 263 50 l 178 50 l 178 667 z "},"\u001c":{"ha":608,"x_min":46,"x_max":568,"o":"m 197 394 l 358 554 l 358 638 l 197 478 l 197 933 l 278 933 l 278 992 l 51 992 l 51 933 l 131 933 l 131 418 l 57 344 l 57 261 l 131 335 l 131 58 l 46 58 l 46 0 l 568 0 l 568 143 l 501 143 l 501 58 l 197 58 l 197 394 z "},"\u001d":{"ha":315,"x_min":46,"x_max":272,"o":"m 188 393 l 267 472 l 267 549 l 188 469 l 188 1042 l 46 1042 l 46 992 l 131 992 l 131 417 l 51 338 l 51 261 l 131 339 l 131 50 l 46 50 l 46 0 l 272 0 l 272 50 l 188 50 l 188 393 z "},"\u001e":{"ha":758,"x_min":33,"x_max":707,"o":"m 707 992 l 68 992 l 68 813 l 126 813 l 126 933 l 600 933 l 33 0 l 707 0 l 707 193 l 649 193 l 649 58 l 147 58 l 707 992 m 401 1031 l 531 1161 l 506 1188 l 386 1071 l 269 1188 l 246 1160 l 375 1031 l 401 1031 z "},"\u001f":{"ha":603,"x_min":31,"x_max":556,"o":"m 556 715 l 56 715 l 56 543 l 113 543 l 113 667 l 460 667 l 31 0 l 556 0 l 556 167 l 499 167 l 499 50 l 135 50 l 556 715 m 322 821 l 483 985 l 451 1017 l 303 871 l 157 1017 l 126 983 l 289 821 l 322 821 z "}," ":{"ha":489,"x_min":0,"x_max":0,"o":""},"!":{"ha":244,"x_min":78,"x_max":178,"o":"m 156 992 l 99 992 l 99 253 l 156 253 l 156 992 m 78 46 q 92 10 78 24 q 129 -3 106 -3 q 163 10 149 -3 q 178 46 178 24 q 163 81 178 67 q 128 94 149 94 q 92 81 106 94 q 78 46 78 67 z "},"\"":{"ha":375,"x_min":85,"x_max":297,"o":"m 297 1010 l 240 1010 l 256 788 l 283 788 l 297 1010 m 142 1010 l 85 1010 l 99 788 l 128 788 l 142 1010 z "},"#":{"ha":715,"x_min":53,"x_max":658,"o":"m 288 717 l 331 892 l 296 892 l 254 717 l 96 717 l 85 683 l 246 683 l 206 525 l 64 525 l 53 490 l 197 490 l 154 315 l 189 315 l 232 490 l 422 490 l 378 308 l 413 308 l 457 490 l 608 490 l 619 525 l 465 525 l 504 683 l 647 683 l 658 717 l 513 717 l 556 892 l 522 892 l 479 717 l 288 717 m 239 525 l 279 683 l 471 683 l 431 525 l 239 525 z "},"$":{"ha":672,"x_min":54,"x_max":636,"o":"m 390 46 l 390 511 q 528 430 476 488 q 579 276 579 372 q 527 123 579 181 q 390 46 475 65 m 558 928 q 390 997 489 992 l 390 1069 l 333 1069 l 333 996 q 251 974 292 992 q 179 926 211 957 q 128 855 147 896 q 108 763 108 814 q 128 667 108 706 q 179 603 147 629 q 251 560 211 578 q 333 531 292 543 l 333 40 q 256 53 290 42 q 192 85 221 65 q 142 130 164 104 q 103 183 121 156 l 103 275 l 54 275 l 54 0 l 103 0 l 103 97 q 197 21 139 51 q 333 -12 254 -10 l 333 -85 l 390 -85 l 390 -7 q 569 83 501 8 q 636 276 636 158 q 571 464 636 394 q 390 565 506 533 l 390 942 q 484 913 443 938 q 558 851 525 888 l 558 779 l 608 779 l 608 979 l 558 979 l 558 928 m 333 942 l 333 585 q 267 611 297 597 q 213 646 236 625 q 177 694 190 667 q 164 763 164 722 q 178 828 164 797 q 215 884 192 860 q 268 923 238 908 q 333 942 299 938 z "},"%":{"ha":1165,"x_min":26,"x_max":1146,"o":"m 917 992 l 861 992 l 251 0 l 306 0 l 917 992 m 571 717 q 549 822 571 772 q 491 909 528 872 q 404 967 454 946 q 299 989 354 989 q 192 967 242 989 q 106 909 143 946 q 48 822 69 872 q 26 717 26 772 q 48 610 26 660 q 106 524 69 561 q 192 466 143 488 q 299 444 242 444 q 404 466 354 444 q 491 524 454 488 q 549 610 528 561 q 571 717 571 660 m 79 717 q 97 802 79 763 q 144 872 114 842 q 213 919 174 901 q 299 936 253 936 q 384 919 344 936 q 453 872 424 901 q 501 802 483 842 q 518 717 518 763 q 501 631 518 671 q 453 562 483 592 q 384 515 424 532 q 299 497 344 497 q 213 515 253 497 q 144 562 174 532 q 97 631 114 592 q 79 717 79 671 m 1146 247 q 1124 353 1146 303 q 1066 440 1103 403 q 979 498 1029 476 q 874 519 929 519 q 767 498 817 519 q 681 440 718 476 q 623 353 644 403 q 601 247 601 303 q 623 141 601 190 q 681 55 644 92 q 767 -3 718 18 q 874 -25 817 -25 q 979 -3 929 -25 q 1066 55 1029 18 q 1124 141 1103 92 q 1146 247 1146 190 m 654 247 q 672 333 654 293 q 719 402 689 372 q 788 449 749 432 q 874 467 828 467 q 959 449 919 467 q 1028 402 999 432 q 1076 333 1058 372 q 1093 247 1093 293 q 1076 162 1093 201 q 1028 92 1058 122 q 959 45 999 63 q 874 28 919 28 q 788 45 828 28 q 719 92 749 63 q 672 162 689 122 q 654 247 654 201 z "},"&":{"ha":935,"x_min":36,"x_max":894,"o":"m 92 275 q 108 363 92 322 q 152 438 125 403 q 213 503 179 474 q 282 560 247 533 l 567 133 q 459 76 518 101 q 321 50 400 50 q 224 67 267 50 q 153 113 182 83 q 108 185 124 143 q 92 275 92 226 m 439 935 q 561 923 510 935 q 647 889 613 911 l 647 790 l 701 790 l 701 928 q 594 972 657 951 q 439 992 531 992 q 342 976 388 992 q 263 931 297 960 q 210 864 229 903 q 190 778 190 825 q 208 682 190 725 q 254 601 226 639 q 176 542 215 574 q 106 470 138 510 q 56 383 75 431 q 36 275 36 335 q 56 163 36 214 q 111 74 75 111 q 201 15 147 36 q 321 -7 254 -7 q 413 3 371 -7 q 488 26 454 13 q 549 57 522 40 q 599 86 576 74 l 660 0 l 735 0 l 643 124 q 758 307 722 201 q 803 531 794 413 l 894 531 l 894 575 l 657 575 l 657 531 l 750 531 q 711 335 744 432 q 615 171 678 238 l 306 633 q 281 671 292 654 q 263 704 269 688 q 251 738 256 721 q 247 778 247 756 q 262 842 247 813 q 302 892 276 871 q 363 924 328 913 q 439 935 397 935 z "},"'":{"ha":228,"x_min":85,"x_max":143,"o":"m 143 992 l 85 992 l 99 771 l 129 771 l 143 992 z "},"(":{"ha":283,"x_min":85,"x_max":224,"o":"m 224 1047 l 167 1047 q 103 751 122 894 q 85 481 85 608 q 106 194 85 335 q 167 -86 126 53 l 224 -86 q 163 194 183 53 q 143 481 143 336 q 161 750 143 608 q 224 1047 179 892 z "},")":{"ha":283,"x_min":82,"x_max":221,"o":"m 221 481 q 202 751 221 608 q 139 1047 183 894 l 82 1047 q 144 750 126 892 q 163 481 163 608 q 142 194 163 336 q 82 -86 122 53 l 139 -86 q 221 481 221 193 z "},"*":{"ha":297,"x_min":40,"x_max":265,"o":"m 40 894 q 52 874 40 883 q 81 859 64 865 q 115 848 97 853 q 143 842 132 843 q 117 835 135 839 q 83 824 100 831 q 53 808 67 817 q 40 788 40 799 q 46 773 40 779 q 58 767 51 767 q 81 774 68 767 q 107 792 94 782 q 131 814 119 803 q 149 832 142 825 q 135 792 143 817 q 128 747 128 767 q 133 724 128 733 q 153 715 139 715 q 169 724 165 715 q 174 749 174 733 q 168 792 174 768 q 157 832 163 817 q 176 813 165 824 q 199 792 188 803 q 224 775 211 782 q 246 768 236 768 q 260 774 256 768 q 265 786 265 779 q 254 806 265 797 q 226 822 243 815 q 192 834 210 829 q 163 842 175 839 q 192 849 175 844 q 226 861 210 854 q 253 876 242 868 q 265 896 265 885 q 260 910 265 904 q 246 917 256 917 q 222 909 235 917 q 197 891 210 901 q 174 869 185 881 q 157 851 164 858 q 169 892 164 868 q 175 936 175 917 q 170 960 175 951 q 153 969 165 969 q 135 960 140 969 q 131 936 131 951 q 136 891 131 915 q 149 851 142 867 q 131 869 142 858 q 108 891 121 881 q 83 909 96 901 q 60 917 69 917 q 40 894 40 917 z "},"+":{"ha":461,"x_min":65,"x_max":406,"o":"m 207 544 l 65 544 l 65 488 l 207 488 l 207 346 l 264 346 l 264 488 l 406 488 l 406 544 l 264 544 l 264 686 l 207 686 l 207 544 z "},",":{"ha":226,"x_min":36,"x_max":188,"o":"m 188 75 l 139 96 l 36 -131 l 54 -143 l 188 75 z "},"-":{"ha":429,"x_min":72,"x_max":358,"o":"m 358 544 l 72 544 l 72 488 l 358 488 l 358 544 z "},".":{"ha":226,"x_min":65,"x_max":165,"o":"m 165 44 q 151 80 165 65 q 115 94 136 94 q 80 80 94 94 q 65 44 65 65 q 80 9 65 24 q 115 -6 94 -6 q 151 9 136 -6 q 165 44 165 24 z "},"/":{"ha":439,"x_min":32,"x_max":428,"o":"m 428 992 l 372 992 l 32 0 l 88 0 l 428 992 z "},":":{"ha":226,"x_min":65,"x_max":165,"o":"m 165 44 q 151 80 165 65 q 115 94 136 94 q 80 80 94 94 q 65 44 65 65 q 80 9 65 24 q 115 -6 94 -6 q 151 9 136 -6 q 165 44 165 24 m 165 608 q 151 644 165 629 q 115 658 136 658 q 80 644 94 658 q 65 608 65 629 q 80 573 65 588 q 115 558 94 558 q 151 573 136 558 q 165 608 165 588 z "},";":{"ha":283,"x_min":57,"x_max":208,"o":"m 208 75 l 160 96 l 57 -131 l 75 -143 l 208 75 m 194 608 q 180 644 194 629 q 144 658 165 658 q 109 644 124 658 q 94 608 94 629 q 109 573 94 588 q 144 558 124 558 q 180 573 165 558 q 194 608 194 588 z "},"<":{"ha":392,"x_min":42,"x_max":351,"o":"m 319 735 l 42 515 l 315 300 l 347 335 l 117 515 l 351 700 l 319 735 z "},"=":{"ha":411,"x_min":51,"x_max":365,"o":"m 365 460 l 51 460 l 51 403 l 365 403 l 365 460 m 365 629 l 51 629 l 51 572 l 365 572 l 365 629 z "},">":{"ha":392,"x_min":46,"x_max":356,"o":"m 82 300 l 356 515 l 78 735 l 46 700 l 281 515 l 50 335 l 82 300 z "},"?":{"ha":607,"x_min":42,"x_max":578,"o":"m 311 440 q 410 462 363 444 q 496 513 458 479 q 556 601 533 547 q 578 731 578 654 q 558 844 578 793 q 503 931 539 894 q 417 986 468 967 q 303 1006 365 1006 q 199 988 243 1006 q 124 944 156 971 q 74 885 93 918 q 42 822 54 853 l 94 797 q 120 851 104 824 q 161 900 136 878 q 222 936 186 922 q 303 950 257 950 q 464 890 406 950 q 522 731 522 831 q 503 619 522 665 q 450 545 485 574 q 365 503 415 517 q 254 489 315 490 l 254 253 l 311 253 l 311 440 m 332 44 q 317 80 332 65 q 282 94 303 94 q 247 80 261 94 q 232 44 232 65 q 247 9 232 24 q 282 -6 261 -6 q 317 9 303 -6 q 332 44 332 24 z "},"@":{"ha":828,"x_min":51,"x_max":779,"o":"m 249 535 q 259 592 249 564 q 290 642 269 621 q 340 677 310 664 q 407 690 369 690 q 462 678 438 690 q 503 648 486 667 q 528 604 519 629 q 536 553 536 579 q 527 494 536 524 q 499 440 518 464 q 449 402 479 417 q 379 388 419 388 q 279 431 310 388 q 249 535 249 475 m 79 554 q 103 674 79 615 q 170 778 126 732 q 276 851 214 824 q 415 879 338 879 q 555 853 493 879 q 660 783 617 826 q 728 684 704 739 q 751 571 751 629 q 744 511 751 543 q 724 451 738 479 q 687 406 710 424 q 633 388 664 388 q 599 397 611 388 q 579 420 586 406 q 570 453 572 435 q 568 489 568 471 l 586 710 l 560 710 l 553 621 q 538 654 547 638 q 510 685 528 671 q 468 709 493 700 q 407 718 443 718 q 327 703 363 718 q 268 662 292 688 q 232 603 244 636 q 219 535 219 569 q 258 407 219 456 q 379 358 296 358 q 451 370 422 358 q 498 398 479 382 q 527 432 517 414 q 543 463 538 450 q 561 390 543 422 q 628 358 579 358 q 701 379 672 358 q 748 432 731 400 q 772 501 765 464 q 779 571 779 539 q 754 693 779 633 q 682 801 729 753 q 567 878 635 849 q 415 907 500 907 q 263 876 331 907 q 149 796 196 846 q 76 683 101 746 q 51 554 51 619 q 74 424 51 488 q 141 310 96 360 q 254 229 186 260 q 414 199 322 199 q 494 206 456 199 q 567 226 533 214 q 624 252 600 238 q 660 282 649 267 l 640 303 q 604 274 628 288 q 551 250 581 261 q 486 233 521 239 q 417 226 451 226 q 269 255 332 226 q 163 329 206 283 q 100 434 121 375 q 79 554 79 493 z "},"A":{"ha":1013,"x_min":46,"x_max":972,"o":"m 514 929 l 719 363 l 314 363 l 514 929 m 300 58 l 207 58 l 293 304 l 739 304 l 826 58 l 732 58 l 732 0 l 972 0 l 972 58 l 894 58 l 581 933 l 658 933 l 658 992 l 369 992 l 369 933 l 447 933 l 133 58 l 46 58 l 46 0 l 300 0 l 300 58 z "},"B":{"ha":783,"x_min":28,"x_max":758,"o":"m 689 754 q 673 844 689 801 q 625 920 657 888 q 545 972 593 953 q 433 992 497 992 l 28 992 l 28 933 l 135 933 l 135 58 l 28 58 l 28 0 l 444 0 q 674 74 590 0 q 758 283 758 147 q 742 381 758 336 q 697 458 725 425 q 631 514 668 492 q 556 547 594 536 q 653 623 618 571 q 689 754 689 675 m 201 572 l 201 933 l 438 933 q 574 883 525 933 q 622 754 622 832 q 609 682 622 715 q 572 624 596 649 q 516 586 549 600 q 446 572 483 572 l 201 572 m 201 58 l 201 514 l 446 514 q 540 498 496 514 q 618 452 585 482 q 672 379 651 422 q 692 283 692 336 q 672 184 692 226 q 618 114 651 142 q 540 72 585 86 q 446 58 496 58 l 201 58 z "},"C":{"ha":976,"x_min":53,"x_max":929,"o":"m 119 494 q 153 670 119 589 q 245 810 186 751 q 385 903 304 869 q 561 936 467 936 q 736 902 664 936 q 863 822 808 868 l 863 735 l 929 735 l 929 981 l 863 981 l 863 904 q 812 939 842 921 q 744 971 782 957 q 660 994 706 985 q 561 1003 614 1003 q 361 964 454 1003 q 199 856 268 925 q 92 694 131 788 q 53 494 53 601 q 92 294 53 388 q 199 133 131 201 q 361 25 268 64 q 561 -14 454 -14 q 694 1 636 -14 q 796 40 753 17 q 869 88 839 63 q 918 136 899 114 l 918 221 q 855 158 890 189 q 776 104 819 128 q 678 67 732 81 q 561 53 625 53 q 385 86 467 53 q 245 178 304 119 q 153 319 186 238 q 119 494 119 400 z "},"D":{"ha":935,"x_min":39,"x_max":918,"o":"m 918 497 q 880 703 918 611 q 778 858 842 794 q 632 957 715 922 q 457 992 549 992 l 39 992 l 39 933 l 144 933 l 144 58 l 39 58 l 39 0 l 454 0 q 628 34 544 0 q 776 133 711 68 q 879 290 840 197 q 918 497 918 382 m 211 58 l 211 933 l 450 933 q 603 901 531 933 q 732 811 676 869 q 819 673 788 753 q 851 497 851 593 q 819 321 851 401 q 731 182 786 240 q 602 91 675 124 q 450 58 529 58 l 211 58 z "},"E":{"ha":674,"x_min":38,"x_max":619,"o":"m 619 829 l 619 992 l 38 992 l 38 933 l 143 933 l 143 58 l 38 58 l 38 0 l 619 0 l 619 167 l 561 167 l 561 58 l 210 58 l 210 522 l 472 522 l 472 451 l 531 451 l 531 651 l 472 651 l 472 581 l 210 581 l 210 933 l 561 933 l 561 829 l 619 829 z "},"F":{"ha":674,"x_min":46,"x_max":628,"o":"m 628 829 l 628 992 l 46 992 l 46 933 l 151 933 l 151 58 l 46 58 l 46 0 l 325 0 l 325 58 l 218 58 l 218 529 l 476 529 l 476 458 l 535 458 l 535 658 l 476 658 l 476 588 l 218 588 l 218 933 l 569 933 l 569 829 l 628 829 z "},"G":{"ha":1113,"x_min":49,"x_max":1092,"o":"m 549 1003 q 353 963 444 1003 q 194 853 263 922 q 88 691 126 783 q 49 494 49 599 q 87 296 49 389 q 192 134 125 203 q 350 26 258 65 q 549 -14 442 -14 q 701 7 636 -14 q 810 58 765 28 q 881 125 854 89 q 919 190 907 161 l 919 0 l 986 0 l 986 422 l 1092 422 l 1092 481 l 565 481 l 565 422 l 924 422 q 892 274 915 342 q 825 157 869 206 q 713 81 781 108 q 549 53 644 53 q 376 87 456 53 q 239 181 297 121 q 148 321 181 240 q 115 494 115 401 q 148 668 115 588 q 239 808 181 749 q 376 902 297 868 q 549 936 456 936 q 736 898 657 936 q 874 807 815 860 l 874 717 l 940 717 l 940 975 l 874 975 l 874 893 q 821 932 853 913 q 747 967 789 951 q 656 993 706 983 q 549 1003 606 1003 z "},"H":{"ha":953,"x_min":46,"x_max":915,"o":"m 325 933 l 325 992 l 46 992 l 46 933 l 151 933 l 151 58 l 46 58 l 46 0 l 325 0 l 325 58 l 218 58 l 218 525 l 743 525 l 743 58 l 636 58 l 636 0 l 915 0 l 915 58 l 810 58 l 810 933 l 915 933 l 915 992 l 636 992 l 636 933 l 743 933 l 743 583 l 218 583 l 218 933 l 325 933 z "},"I":{"ha":419,"x_min":78,"x_max":347,"o":"m 347 933 l 347 992 l 78 992 l 78 933 l 179 933 l 179 58 l 78 58 l 78 0 l 347 0 l 347 58 l 246 58 l 246 933 l 347 933 z "},"J":{"ha":468,"x_min":63,"x_max":439,"o":"m 439 992 l 199 992 l 199 933 l 292 933 l 292 126 q 268 3 292 35 q 194 -29 244 -29 q 142 -18 163 -29 q 108 8 121 -7 l 63 -40 q 115 -80 83 -64 q 194 -96 146 -96 q 317 -45 275 -96 q 358 126 358 6 l 358 933 l 439 933 l 439 992 z "},"K":{"ha":744,"x_min":47,"x_max":729,"o":"m 256 933 l 256 992 l 47 992 l 47 933 l 118 933 l 118 58 l 47 58 l 47 0 l 256 0 l 256 58 l 185 58 l 185 482 l 206 503 l 572 58 l 499 58 l 499 0 l 729 0 l 729 58 l 657 58 l 254 549 l 639 933 l 711 933 l 711 992 l 485 992 l 485 933 l 554 933 l 185 564 l 185 933 l 256 933 z "},"L":{"ha":608,"x_min":46,"x_max":568,"o":"m 278 933 l 278 992 l 51 992 l 51 933 l 131 933 l 131 58 l 46 58 l 46 0 l 568 0 l 568 143 l 501 143 l 501 58 l 197 58 l 197 933 l 278 933 z "},"M":{"ha":1240,"x_min":42,"x_max":1208,"o":"m 1050 869 l 1050 58 l 958 58 l 958 0 l 1208 0 l 1208 58 l 1117 58 l 1117 933 l 1208 933 l 1208 993 l 1040 993 l 625 126 l 210 992 l 42 992 l 42 933 l 133 933 l 133 58 l 42 58 l 42 0 l 292 0 l 292 58 l 200 58 l 200 869 l 625 -19 l 1050 869 z "},"N":{"ha":1042,"x_min":35,"x_max":1024,"o":"m 871 933 l 871 144 l 158 992 l 35 992 l 35 933 l 119 933 l 119 58 l 35 58 l 35 0 l 271 0 l 271 58 l 186 58 l 186 847 l 904 -3 l 938 -3 l 938 933 l 1024 933 l 1024 992 l 785 992 l 785 933 l 871 933 z "},"O":{"ha":1117,"x_min":53,"x_max":1071,"o":"m 561 -14 q 759 26 667 -14 q 921 135 851 67 q 1031 297 990 204 q 1071 494 1071 389 q 1031 692 1071 600 q 921 853 990 785 q 759 963 851 922 q 561 1003 667 1003 q 363 963 456 1003 q 202 853 271 922 q 93 692 133 785 q 53 494 53 600 q 93 297 53 389 q 202 135 133 204 q 363 26 271 67 q 561 -14 456 -14 m 561 53 q 390 88 471 53 q 249 183 310 122 q 154 324 189 243 q 119 494 119 404 q 154 666 119 586 q 249 806 189 746 q 390 901 310 867 q 561 936 471 936 q 733 901 653 936 q 874 806 814 867 q 969 666 935 746 q 1004 494 1004 586 q 969 324 1004 404 q 874 183 935 243 q 733 88 814 122 q 561 53 653 53 z "},"P":{"ha":674,"x_min":26,"x_max":639,"o":"m 639 722 q 621 831 639 782 q 568 916 603 881 q 483 972 533 951 q 369 992 433 992 l 26 992 l 26 933 l 118 933 l 118 58 l 26 58 l 26 0 l 276 0 l 276 58 l 185 58 l 185 454 l 369 454 q 567 526 494 454 q 639 722 639 597 m 572 722 q 516 564 572 615 q 369 513 460 513 l 185 513 l 185 933 l 369 933 q 516 878 460 933 q 572 722 572 822 z "},"Q":{"ha":1126,"x_min":51,"x_max":1072,"o":"m 1000 -56 q 932 -78 964 -71 q 853 -85 900 -85 q 772 -76 803 -85 q 715 -54 740 -67 q 660 -29 689 -42 q 599 -11 631 -17 q 774 35 689 -6 q 926 142 860 75 q 1032 299 992 210 q 1072 494 1072 389 q 1032 692 1072 600 q 922 853 992 785 q 760 963 853 922 q 561 1003 667 1003 q 363 963 456 1003 q 201 853 271 922 q 92 692 132 785 q 51 494 51 600 q 90 301 51 393 q 197 139 129 208 q 359 28 265 69 q 561 -14 453 -14 q 456 -22 513 -14 q 339 -65 399 -29 l 339 -124 q 449 -81 397 -92 q 553 -71 500 -71 q 630 -81 597 -71 q 693 -107 663 -92 q 761 -134 725 -122 q 853 -146 797 -146 q 933 -137 900 -146 q 1000 -117 965 -129 l 1000 -56 m 561 53 q 390 88 471 53 q 249 183 310 122 q 154 324 189 243 q 119 494 119 404 q 154 666 119 586 q 249 806 189 746 q 390 901 310 867 q 561 936 471 936 q 733 901 653 936 q 874 806 814 867 q 969 666 935 746 q 1004 494 1004 586 q 969 324 1004 404 q 874 183 935 243 q 733 88 814 122 q 561 53 653 53 z "},"R":{"ha":763,"x_min":31,"x_max":722,"o":"m 653 718 q 633 826 653 776 q 578 913 614 876 q 492 971 543 950 q 381 992 442 992 l 31 992 l 31 933 l 129 933 l 129 58 l 31 58 l 31 0 l 293 0 l 293 58 l 194 58 l 194 446 l 219 446 l 578 0 l 722 0 l 722 58 l 615 58 l 303 446 l 381 446 q 492 467 442 446 q 578 526 543 489 q 633 612 614 563 q 653 718 653 661 m 586 718 q 572 635 586 674 q 530 567 557 596 q 466 521 503 538 q 386 504 429 504 l 196 504 l 196 933 l 386 933 q 465 917 428 933 q 528 873 501 901 q 571 805 556 844 q 586 718 586 765 z "},"S":{"ha":667,"x_min":54,"x_max":636,"o":"m 608 768 l 608 979 l 550 979 l 550 928 q 522 952 538 940 q 485 974 507 964 q 433 991 463 985 q 363 997 403 997 q 266 980 313 997 q 185 931 219 963 q 129 857 150 900 q 108 763 108 814 q 125 665 108 704 q 172 599 142 626 q 243 551 203 571 q 332 514 283 532 q 425 477 382 496 q 500 432 468 458 q 551 369 532 406 q 569 278 569 332 q 552 185 569 226 q 503 115 535 144 q 431 71 472 86 q 342 56 389 56 q 260 69 296 56 q 197 103 225 82 q 147 151 168 125 q 113 204 126 178 l 113 285 l 54 285 l 54 0 l 113 0 l 113 97 q 201 23 143 57 q 342 -11 258 -11 q 465 11 410 -11 q 558 72 519 33 q 616 163 596 110 q 636 278 636 215 q 614 391 636 343 q 553 474 592 439 q 465 533 515 508 q 358 576 414 557 q 283 606 317 590 q 225 643 249 622 q 188 693 201 664 q 175 763 175 722 q 229 886 175 842 q 363 931 283 931 q 481 901 435 931 q 550 836 526 872 l 550 768 l 608 768 z "},"T":{"ha":722,"x_min":51,"x_max":671,"o":"m 671 992 l 51 992 l 51 829 l 110 829 l 110 933 l 329 933 l 329 58 l 222 58 l 222 0 l 501 0 l 501 58 l 396 58 l 396 933 l 613 933 l 613 829 l 671 829 l 671 992 z "},"U":{"ha":804,"x_min":29,"x_max":775,"o":"m 268 935 l 268 992 l 29 992 l 29 935 l 115 935 l 115 253 q 140 137 115 186 q 206 55 165 88 q 298 6 246 22 q 403 -10 350 -10 q 507 6 456 -10 q 599 55 558 22 q 665 137 640 88 q 690 253 690 186 l 690 935 l 775 935 l 775 992 l 539 992 l 539 935 l 624 935 l 624 247 q 603 160 624 196 q 552 101 583 124 q 481 67 521 78 q 403 57 442 57 q 324 67 364 57 q 253 101 285 78 q 202 160 222 124 q 182 247 182 196 l 182 935 l 268 935 z "},"V":{"ha":796,"x_min":25,"x_max":774,"o":"m 247 992 l 25 992 l 25 933 l 99 933 l 400 -36 l 701 933 l 774 933 l 774 992 l 551 992 l 551 933 l 635 933 l 400 163 l 165 933 l 247 933 l 247 992 z "},"W":{"ha":1361,"x_min":33,"x_max":1331,"o":"m 293 992 l 33 992 l 33 933 l 129 933 l 429 -36 l 679 806 l 929 -36 l 1226 933 l 1331 933 l 1331 992 l 1063 992 l 1063 933 l 1160 933 l 929 163 l 679 1006 l 429 161 l 196 933 l 293 933 l 293 992 z "},"X":{"ha":817,"x_min":40,"x_max":778,"o":"m 269 992 l 61 992 l 61 933 l 138 933 l 374 501 l 122 58 l 40 58 l 40 0 l 263 0 l 263 58 l 189 58 l 408 444 l 629 58 l 556 58 l 556 0 l 778 0 l 778 58 l 696 58 l 440 500 l 681 933 l 757 933 l 757 992 l 549 992 l 549 933 l 614 933 l 407 557 l 204 933 l 269 933 l 269 992 z "},"Y":{"ha":790,"x_min":42,"x_max":753,"o":"m 250 992 l 42 992 l 42 933 l 118 933 l 363 503 l 363 58 l 285 58 l 285 0 l 507 0 l 507 58 l 429 58 l 429 503 l 674 933 l 753 933 l 753 992 l 543 992 l 543 933 l 607 933 l 396 557 l 185 933 l 250 933 l 250 992 z "},"Z":{"ha":758,"x_min":33,"x_max":707,"o":"m 707 992 l 68 992 l 68 813 l 126 813 l 126 933 l 600 933 l 33 0 l 707 0 l 707 193 l 649 193 l 649 58 l 147 58 l 707 992 z "},"[":{"ha":297,"x_min":82,"x_max":236,"o":"m 232 1000 l 232 1050 l 82 1050 l 82 -67 l 236 -67 l 236 -18 l 139 -17 l 139 1000 l 232 1000 z "},"\\":{"ha":390,"x_min":32,"x_max":371,"o":"m 371 0 l 88 992 l 32 992 l 317 0 l 371 0 z "},"]":{"ha":297,"x_min":85,"x_max":239,"o":"m 239 -67 l 239 1050 l 89 1050 l 89 1000 l 183 1000 l 183 -17 l 85 -18 l 85 -67 l 239 -67 z "},"^":{"ha":489,"x_min":71,"x_max":425,"o":"m 226 1021 l 71 624 l 111 608 l 249 950 l 388 604 l 425 624 l 269 1021 l 226 1021 z "},"_":{"ha":496,"x_min":1,"x_max":511,"o":"m 511 -50 l 1 -50 l 1 -99 l 511 -99 l 511 -50 z "},"`":{"ha":368,"x_min":81,"x_max":294,"o":"m 256 838 l 294 878 l 122 1051 l 81 1011 l 256 838 z "},"a":{"ha":786,"x_min":61,"x_max":758,"o":"m 379 675 q 459 663 419 675 q 530 625 499 650 q 581 562 561 600 q 600 472 600 524 l 600 393 q 561 436 585 415 q 506 474 538 457 q 435 500 475 490 q 346 510 396 510 q 226 488 279 510 q 136 431 172 467 q 81 347 100 394 q 61 249 61 300 q 79 151 61 199 q 133 67 97 104 q 221 8 168 31 q 343 -14 274 -14 q 442 -3 400 -14 q 515 25 485 8 q 566 61 546 42 q 600 97 586 81 l 600 0 l 758 0 l 758 50 l 656 50 l 656 485 q 634 589 656 543 q 576 667 613 635 q 488 715 539 699 q 379 732 438 732 q 249 710 313 732 q 143 646 185 688 l 176 600 q 263 653 208 632 q 379 675 317 675 m 118 249 q 132 323 118 286 q 174 389 146 360 q 246 436 203 418 q 346 454 289 454 q 453 437 407 454 q 528 390 499 419 q 574 324 558 361 q 589 249 589 288 q 574 173 589 210 q 528 107 558 136 q 453 60 499 78 q 346 43 407 43 q 247 60 289 43 q 176 107 204 78 q 133 173 147 136 q 118 249 118 210 z "},"b":{"ha":825,"x_min":50,"x_max":775,"o":"m 718 361 q 702 244 718 301 q 653 142 686 186 q 572 69 621 97 q 457 42 522 42 q 341 69 390 42 q 258 142 292 97 q 208 244 225 186 q 192 361 192 301 q 208 478 192 421 q 258 581 225 536 q 340 652 290 625 q 457 679 390 679 q 571 652 522 679 q 652 581 619 625 q 701 478 685 536 q 718 361 718 421 m 50 0 l 192 0 l 192 139 q 228 85 206 113 q 282 35 250 57 q 357 -1 314 13 q 457 -15 400 -15 q 598 17 538 -15 q 697 101 658 49 q 756 222 736 154 q 775 361 775 289 q 756 499 775 432 q 697 619 736 567 q 598 704 658 672 q 457 736 538 736 q 358 722 401 736 q 283 684 315 707 q 228 632 250 661 q 192 574 206 603 l 192 1042 l 50 1042 l 50 992 l 135 992 l 135 50 l 50 50 l 50 0 z "},"c":{"ha":668,"x_min":40,"x_max":610,"o":"m 560 643 l 560 578 l 610 578 l 610 744 l 560 744 l 560 708 q 479 728 519 724 q 404 733 439 733 q 249 702 317 733 q 134 619 181 671 q 64 499 88 567 q 40 356 40 431 q 63 213 40 281 q 132 92 86 144 q 246 10 178 40 q 404 -21 314 -21 q 483 -15 450 -21 q 539 1 515 -8 q 579 22 563 10 q 610 44 596 33 l 610 118 q 575 88 593 103 q 533 62 557 74 q 477 43 508 50 q 404 36 446 36 q 270 63 328 36 q 174 133 213 89 q 115 235 135 176 q 96 356 96 293 q 115 477 96 419 q 174 579 135 535 q 270 650 213 624 q 404 676 328 676 q 485 669 447 676 q 560 643 524 663 z "},"d":{"ha":836,"x_min":60,"x_max":785,"o":"m 785 50 l 700 50 l 700 1042 l 542 1042 l 542 992 l 643 992 l 643 574 q 607 632 629 603 q 552 684 585 661 q 476 722 519 707 q 378 736 433 736 q 236 704 296 736 q 138 619 176 672 q 79 499 99 567 q 60 361 60 432 q 79 222 60 289 q 138 101 99 154 q 236 17 176 49 q 378 -15 296 -15 q 477 -1 433 -15 q 553 35 521 13 q 607 85 585 57 q 643 139 629 113 l 643 0 l 785 0 l 785 50 m 643 361 q 626 244 643 301 q 576 142 610 186 q 494 69 543 97 q 378 42 444 42 q 263 69 313 42 q 181 142 214 97 q 133 244 149 186 q 117 361 117 301 q 133 478 117 421 q 183 581 150 536 q 264 653 215 626 q 378 681 313 681 q 494 653 444 681 q 577 581 544 626 q 626 478 610 536 q 643 361 643 421 z "},"e":{"ha":782,"x_min":54,"x_max":725,"o":"m 389 38 q 276 62 326 38 q 191 128 226 86 q 137 227 156 169 q 118 351 118 285 l 724 351 q 725 371 725 361 q 725 394 725 381 q 702 517 725 457 q 635 626 679 578 q 530 705 592 675 q 389 735 468 735 q 253 706 315 735 q 147 626 192 676 q 78 506 103 575 q 54 358 54 438 q 75 218 54 286 q 138 97 96 150 q 242 13 179 44 q 389 -19 304 -19 q 505 -5 456 -19 q 590 33 554 10 q 651 87 626 57 q 696 147 676 117 l 647 179 q 610 127 631 153 q 559 82 589 101 q 488 50 529 63 q 389 38 446 38 m 663 401 l 124 401 q 144 505 125 456 q 197 593 163 554 q 279 655 231 632 q 389 678 328 678 q 499 656 450 678 q 584 596 549 633 q 640 508 619 558 q 663 401 660 457 z "},"f":{"ha":368,"x_min":36,"x_max":331,"o":"m 36 50 l 36 0 l 263 0 l 263 50 l 178 50 l 178 667 l 314 667 l 314 715 l 178 715 l 178 886 q 197 951 178 931 q 247 971 215 971 q 296 964 276 971 q 331 950 315 957 l 331 1006 q 295 1020 315 1013 q 240 1028 275 1028 q 152 993 183 1028 q 121 900 121 958 l 121 715 l 43 715 l 43 667 l 121 667 l 121 50 l 36 50 z "},"g":{"ha":825,"x_min":60,"x_max":785,"o":"m 378 -15 q 477 -1 433 -15 q 553 35 521 13 q 607 85 585 57 q 643 139 629 113 l 643 14 q 583 -151 643 -90 q 422 -212 522 -212 q 321 -198 360 -212 q 253 -168 282 -183 l 226 -219 q 308 -254 263 -239 q 422 -269 353 -269 q 528 -251 478 -269 q 617 -196 579 -232 q 678 -107 656 -160 q 700 13 700 -54 l 700 667 l 785 667 l 785 715 l 643 715 l 643 574 q 607 632 629 603 q 552 684 585 661 q 476 722 519 707 q 378 736 433 736 q 241 705 300 736 q 142 622 182 674 q 81 501 101 569 q 60 361 60 433 q 81 219 60 288 q 142 99 101 151 q 241 16 182 47 q 378 -15 300 -15 m 643 361 q 626 244 643 301 q 576 142 610 186 q 494 69 543 97 q 378 42 444 42 q 264 69 313 42 q 183 140 215 96 q 133 242 150 185 q 117 361 117 300 q 133 480 117 422 q 183 582 150 538 q 264 653 215 626 q 378 681 313 681 q 494 653 444 681 q 577 581 544 626 q 626 478 610 536 q 643 361 643 421 z "},"h":{"ha":758,"x_min":50,"x_max":721,"o":"m 50 0 l 276 0 l 276 50 l 192 50 l 192 521 q 203 563 192 536 q 238 616 214 590 q 299 660 263 642 q 386 679 336 679 q 526 634 472 679 q 579 481 579 589 l 579 50 l 494 50 l 494 0 l 721 0 l 721 50 l 635 50 l 635 503 q 615 605 635 561 q 560 678 594 649 q 481 722 526 707 q 386 736 436 736 q 313 728 344 736 q 258 706 281 719 q 219 676 235 692 q 192 644 203 660 l 192 1042 l 50 1042 l 50 992 l 135 992 l 135 50 l 50 50 l 50 0 z "},"i":{"ha":354,"x_min":65,"x_max":292,"o":"m 207 715 l 65 715 l 65 667 l 150 667 l 150 50 l 65 50 l 65 0 l 292 0 l 292 50 l 207 50 l 207 715 m 224 915 q 211 947 224 935 q 179 960 199 960 q 147 947 160 960 q 135 915 135 935 q 147 883 135 896 q 179 871 160 871 q 211 883 199 871 q 224 915 224 896 z "},"j":{"ha":306,"x_min":31,"x_max":226,"o":"m 210 715 l 67 715 l 67 667 l 153 667 l 153 1 q 119 -92 153 -58 q 31 -150 86 -125 l 60 -200 q 116 -169 89 -186 q 164 -130 143 -153 q 197 -75 185 -107 q 210 1 210 -43 l 210 715 m 226 915 q 214 947 226 935 q 182 960 201 960 q 150 947 163 960 q 138 915 138 935 q 150 883 138 896 q 182 871 163 871 q 214 883 201 871 q 226 915 226 896 z "},"k":{"ha":732,"x_min":64,"x_max":686,"o":"m 206 404 l 206 1042 l 64 1042 l 64 992 l 149 992 l 149 50 l 64 50 l 64 0 l 290 0 l 290 50 l 206 50 l 206 339 l 228 360 l 538 50 l 444 50 l 444 0 l 686 0 l 686 50 l 611 50 l 271 394 l 543 667 l 640 667 l 640 715 l 356 715 l 356 667 l 468 667 l 206 404 z "},"l":{"ha":315,"x_min":46,"x_max":272,"o":"m 188 50 l 188 1042 l 46 1042 l 46 992 l 131 992 l 131 50 l 46 50 l 46 0 l 272 0 l 272 50 l 188 50 z "},"m":{"ha":1007,"x_min":42,"x_max":976,"o":"m 42 0 l 268 0 l 268 50 l 183 50 l 183 542 q 197 597 183 572 q 231 640 210 622 q 281 666 253 657 q 339 675 308 675 q 392 666 367 675 q 438 640 418 657 q 469 599 457 624 q 481 544 481 575 l 481 50 l 396 50 l 396 0 l 622 0 l 622 50 l 538 50 l 538 543 q 551 598 538 574 q 585 640 564 622 q 635 666 607 657 q 694 675 664 675 q 795 640 756 675 q 835 544 835 606 l 835 50 l 750 50 l 750 0 l 976 0 l 976 50 l 892 50 l 892 544 q 878 617 892 583 q 838 677 864 651 q 776 717 813 703 q 694 732 740 732 q 620 722 651 732 q 567 697 589 713 q 532 665 546 682 q 510 633 518 647 q 492 665 503 647 q 460 697 481 682 q 411 722 440 711 q 339 732 382 732 q 238 709 274 732 q 183 658 203 686 l 183 715 l 42 715 l 42 667 l 126 667 l 126 50 l 42 50 l 42 0 z "},"n":{"ha":779,"x_min":64,"x_max":738,"o":"m 64 0 l 290 0 l 290 50 l 206 50 l 206 526 q 218 567 206 542 q 255 618 231 593 q 315 661 279 643 q 400 679 351 679 q 476 669 440 679 q 538 634 511 658 q 579 572 564 610 q 594 481 594 535 l 594 50 l 508 50 l 508 0 l 738 0 l 738 50 l 650 50 l 650 503 q 630 605 650 561 q 576 678 610 649 q 496 722 542 707 q 400 736 450 736 q 327 727 358 736 q 272 704 296 718 q 232 674 249 690 q 206 643 215 657 l 206 715 l 64 715 l 64 667 l 149 667 l 149 50 l 64 50 l 64 0 z "},"o":{"ha":778,"x_min":50,"x_max":731,"o":"m 731 360 q 708 499 731 431 q 642 619 686 567 q 535 704 599 672 q 390 736 472 736 q 244 704 308 736 q 138 619 181 672 q 72 499 94 567 q 50 360 50 431 q 72 221 50 289 q 138 101 94 153 q 244 17 181 49 q 390 -15 308 -15 q 535 17 472 -15 q 642 101 599 49 q 708 221 686 153 q 731 360 731 289 m 674 360 q 656 243 674 300 q 602 141 638 186 q 514 69 567 96 q 390 42 461 42 q 266 69 319 42 q 177 141 213 96 q 124 243 142 186 q 107 360 107 300 q 124 476 107 419 q 177 578 142 533 q 266 651 213 624 q 390 679 319 679 q 514 651 461 679 q 602 578 567 624 q 656 476 638 533 q 674 360 674 419 z "},"p":{"ha":807,"x_min":39,"x_max":764,"o":"m 707 361 q 691 244 707 301 q 642 142 675 186 q 560 69 610 97 q 444 42 511 42 q 330 69 379 42 q 247 142 281 97 q 197 244 214 186 q 181 361 181 301 q 196 478 181 421 q 243 581 211 536 q 324 652 275 625 q 439 679 372 679 q 554 652 504 679 q 638 581 604 625 q 690 478 672 536 q 707 361 707 421 m 444 736 q 347 722 390 736 q 272 685 304 708 q 217 634 239 663 q 181 576 194 606 l 181 715 l 39 715 l 39 667 l 124 667 l 124 -200 l 39 -200 l 39 -250 l 265 -250 l 265 -200 l 181 -200 l 181 139 q 217 85 194 113 q 271 35 239 57 q 346 -1 303 13 q 444 -15 389 -15 q 586 17 526 -15 q 685 101 646 49 q 744 222 725 154 q 764 361 764 289 q 744 499 764 432 q 685 619 725 567 q 586 704 646 672 q 444 736 526 736 z "},"q":{"ha":836,"x_min":68,"x_max":806,"o":"m 388 -15 q 486 -1 443 -15 q 561 35 529 13 q 615 85 593 57 q 651 139 638 113 l 651 -250 l 806 -250 l 806 -193 l 708 -193 l 708 667 l 793 667 l 793 715 l 651 715 l 651 574 q 614 632 638 603 q 557 684 590 661 q 479 722 524 707 q 381 736 435 736 q 240 704 299 736 q 142 619 181 672 q 86 499 104 567 q 68 361 68 432 q 88 222 68 289 q 147 101 107 154 q 246 17 186 49 q 388 -15 306 -15 m 651 361 q 635 244 651 301 q 585 142 618 186 q 502 69 551 97 q 388 42 453 42 q 272 69 321 42 q 190 142 222 97 q 141 244 157 186 q 125 361 125 301 q 142 478 125 421 q 191 581 158 536 q 273 652 224 625 q 388 679 322 679 q 503 652 454 679 q 585 581 553 625 q 635 478 618 536 q 651 361 651 421 z "},"r":{"ha":464,"x_min":49,"x_max":440,"o":"m 49 0 l 275 0 l 275 50 l 190 50 l 190 533 q 200 585 190 561 q 227 628 210 610 q 268 656 244 646 q 318 667 292 667 q 408 632 372 667 l 440 678 q 392 710 419 697 q 318 722 364 722 q 235 699 264 722 q 190 649 207 676 l 190 715 l 49 715 l 49 667 l 133 667 l 133 50 l 49 50 l 49 0 z "},"s":{"ha":536,"x_min":43,"x_max":508,"o":"m 453 197 q 403 87 453 125 q 274 49 353 49 q 170 69 215 49 q 92 118 125 89 l 92 189 l 43 189 l 43 0 l 92 0 l 92 50 q 172 7 126 22 q 274 -8 217 -8 q 365 6 322 -8 q 439 45 407 19 q 490 109 471 71 q 508 197 508 147 q 490 281 508 246 q 441 339 472 315 q 366 379 410 363 q 271 410 322 396 q 155 461 192 431 q 118 553 118 492 q 163 650 118 615 q 274 685 207 685 q 374 663 333 685 q 446 614 415 642 l 446 561 l 496 561 l 496 726 l 446 726 l 446 679 q 379 719 421 701 q 274 736 338 736 q 188 722 228 736 q 121 684 149 708 q 77 626 93 660 q 61 553 61 592 q 76 475 61 508 q 119 418 92 442 q 185 378 146 394 q 271 350 224 361 q 346 327 313 339 q 403 298 379 315 q 440 256 426 281 q 453 197 453 232 z "},"t":{"ha":376,"x_min":42,"x_max":329,"o":"m 176 715 l 176 932 l 119 932 l 119 715 l 42 715 l 42 667 l 119 667 l 119 110 q 149 16 119 51 q 238 -19 178 -19 q 291 -12 269 -19 q 329 3 313 -6 l 329 60 q 292 43 313 50 q 246 36 271 36 q 176 117 176 36 l 176 667 l 311 667 l 311 715 l 176 715 z "},"u":{"ha":779,"x_min":58,"x_max":729,"o":"m 644 715 l 503 715 l 503 667 l 588 667 l 588 185 q 576 151 588 175 q 540 103 564 128 q 479 59 515 78 q 394 40 443 40 q 253 83 306 40 q 200 235 200 126 l 200 715 l 58 715 l 58 667 l 143 667 l 143 222 q 208 44 143 106 q 394 -17 272 -17 q 464 -8 433 -17 q 517 13 494 0 q 558 42 540 25 q 588 75 575 58 l 588 0 l 729 0 l 729 50 l 644 50 l 644 715 z "},"v":{"ha":649,"x_min":39,"x_max":614,"o":"m 215 667 l 215 715 l 39 715 l 39 667 l 94 667 l 319 0 l 346 0 l 557 667 l 614 667 l 614 715 l 436 715 l 436 667 l 500 667 l 338 140 l 331 140 l 151 667 l 215 667 z "},"w":{"ha":1017,"x_min":39,"x_max":979,"o":"m 215 667 l 215 715 l 39 715 l 39 667 l 94 667 l 319 0 l 336 0 l 511 572 l 693 0 l 711 0 l 922 667 l 979 667 l 979 715 l 803 715 l 803 667 l 865 667 l 703 140 l 519 715 l 504 715 l 331 140 l 151 667 l 215 667 z "},"x":{"ha":629,"x_min":36,"x_max":600,"o":"m 233 715 l 36 715 l 36 667 l 106 667 l 286 347 l 111 50 l 38 50 l 38 0 l 242 0 l 242 50 l 168 50 l 315 306 l 471 50 l 392 50 l 392 0 l 597 0 l 597 50 l 533 50 l 343 353 l 535 667 l 600 667 l 600 715 l 401 715 l 401 667 l 476 667 l 318 399 l 163 667 l 233 667 l 233 715 z "},"y":{"ha":785,"x_min":47,"x_max":739,"o":"m 288 667 l 288 715 l 47 715 l 47 667 l 135 667 l 372 81 l 250 -232 l 158 -232 l 158 -282 l 397 -282 l 397 -232 l 308 -232 l 665 667 l 739 667 l 739 715 l 525 715 l 525 667 l 606 667 l 406 157 l 199 667 l 288 667 z "},"z":{"ha":603,"x_min":31,"x_max":556,"o":"m 556 715 l 56 715 l 56 543 l 113 543 l 113 667 l 460 667 l 31 0 l 556 0 l 556 167 l 499 167 l 499 50 l 135 50 l 556 715 z "},"{":{"ha":256,"x_min":11,"x_max":247,"o":"m 125 618 l 125 872 q 131 933 125 910 q 149 971 136 957 q 186 990 163 985 q 246 994 210 994 l 246 1042 q 166 1034 199 1042 q 113 1007 133 1026 q 83 955 92 988 q 74 872 74 922 l 74 618 q 53 546 74 575 q 11 493 32 517 q 53 441 32 469 q 74 368 74 413 l 74 89 q 113 -35 74 3 q 247 -71 151 -74 l 247 -28 q 188 -23 211 -28 q 151 -4 165 -18 q 131 33 136 10 q 125 92 125 56 l 125 368 q 108 438 125 404 q 68 493 90 471 q 108 544 92 515 q 125 618 125 572 z "},"|":{"ha":185,"x_min":75,"x_max":124,"o":"m 124 -64 l 124 1049 l 75 1049 l 75 -64 l 124 -64 z "},"}":{"ha":256,"x_min":19,"x_max":256,"o":"m 21 994 q 81 990 57 994 q 117 971 104 985 q 136 933 131 957 q 142 872 142 910 l 142 618 q 158 544 142 572 q 199 493 175 515 q 159 438 176 471 q 142 368 142 404 l 142 92 q 136 33 142 56 q 116 -4 131 10 q 78 -23 101 -18 q 19 -28 54 -28 l 19 -71 q 154 -35 115 -74 q 193 89 193 3 l 193 368 q 214 441 193 413 q 256 493 235 469 q 214 546 235 517 q 193 618 193 575 l 193 872 q 184 955 193 922 q 154 1007 175 988 q 101 1034 133 1026 q 21 1042 68 1042 l 21 994 z "},"~":{"ha":672,"x_min":81,"x_max":607,"o":"m 81 518 l 118 483 q 156 515 135 499 q 222 531 176 531 q 280 520 254 531 q 333 497 306 510 q 390 473 364 482 q 454 464 417 464 q 547 483 511 464 q 607 526 583 503 l 571 563 q 519 531 550 544 q 453 518 489 518 q 394 528 421 518 q 344 551 368 539 q 288 574 317 564 q 222 585 260 585 q 132 562 167 585 q 81 518 97 539 z "},"‚":{"ha":256,"x_min":96,"x_max":181,"o":"m 96 224 l 96 125 l 142 125 l 142 57 q 133 2 142 24 q 117 -35 125 -19 l 157 -35 q 173 1 165 -19 q 181 57 181 22 l 181 224 l 96 224 z "},"ƒ":{"ha":818,"x_min":92,"x_max":760,"o":"m 760 668 l 92 668 l 92 0 l 760 0 l 760 668 z "},"„":{"ha":418,"x_min":90,"x_max":354,"o":"m 269 224 l 269 125 l 315 125 l 315 57 q 307 2 315 24 q 290 -35 299 -19 l 331 -35 q 347 1 339 -19 q 354 57 354 22 l 354 224 l 269 224 m 90 224 l 90 125 l 136 125 l 136 57 q 128 2 136 24 q 111 -35 119 -19 l 151 -35 q 167 1 160 -19 q 175 57 175 22 l 175 224 l 90 224 z "},"…":{"ha":643,"x_min":65,"x_max":601,"o":"m 165 44 q 151 80 165 65 q 115 94 136 94 q 80 80 94 94 q 65 44 65 65 q 80 9 65 24 q 115 -6 94 -6 q 151 9 136 -6 q 165 44 165 24 m 383 44 q 369 80 383 65 q 333 94 354 94 q 298 80 313 94 q 283 44 283 65 q 298 9 283 24 q 333 -6 313 -6 q 369 9 354 -6 q 383 44 383 24 m 601 44 q 587 80 601 65 q 551 94 572 94 q 516 80 531 94 q 501 44 501 65 q 516 9 501 24 q 551 -6 531 -6 q 587 9 572 -6 q 601 44 601 24 z "},"†":{"ha":374,"x_min":44,"x_max":336,"o":"m 168 172 l 211 172 l 211 796 l 336 796 l 336 839 l 211 839 l 211 1014 l 168 1014 l 168 839 l 44 839 l 44 796 l 168 796 l 168 172 z "},"‡":{"ha":368,"x_min":44,"x_max":336,"o":"m 168 106 l 211 106 l 211 540 l 336 540 l 336 582 l 211 582 l 211 789 l 336 789 l 336 832 l 211 832 l 211 1014 l 168 1014 l 168 832 l 44 832 l 44 789 l 168 789 l 168 582 l 44 582 l 44 540 l 168 540 l 168 106 z "},"ˆ":{"ha":489,"x_min":68,"x_max":425,"o":"m 231 1021 l 68 856 l 100 825 l 249 971 l 394 825 l 425 857 l 264 1021 l 231 1021 z "},"‰":{"ha":1793,"x_min":26,"x_max":1749,"o":"m 1478 522 q 1373 501 1422 522 q 1287 442 1324 479 q 1228 356 1250 406 q 1207 251 1207 307 q 1228 146 1207 194 q 1287 61 1250 97 q 1373 4 1324 25 q 1478 -17 1422 -17 q 1583 4 1533 -17 q 1669 61 1632 25 q 1727 146 1706 97 q 1749 251 1749 194 q 1727 356 1749 307 q 1669 442 1706 406 q 1583 501 1632 479 q 1478 522 1533 522 m 1478 32 q 1394 49 1433 32 q 1324 97 1354 67 q 1276 167 1293 126 q 1258 251 1258 207 q 1276 335 1258 296 q 1324 406 1293 375 q 1394 453 1354 436 q 1478 471 1433 471 q 1563 453 1522 471 q 1633 406 1603 436 q 1680 335 1663 375 q 1697 251 1697 296 q 1680 167 1697 207 q 1633 97 1663 126 q 1563 49 1603 67 q 1478 32 1522 32 m 250 0 l 994 992 l 940 992 l 194 0 l 250 0 m 297 989 q 192 967 242 989 q 106 909 143 946 q 48 823 69 872 q 26 718 26 774 q 48 614 26 663 q 106 528 69 565 q 192 471 143 492 q 297 450 242 450 q 402 471 353 450 q 488 528 451 492 q 547 614 525 565 q 568 718 568 663 q 547 823 568 774 q 488 909 525 872 q 402 967 451 946 q 297 989 353 989 m 297 500 q 213 517 253 500 q 143 565 174 535 q 95 634 113 594 q 78 718 78 674 q 95 803 78 763 q 143 873 113 843 q 213 920 174 903 q 297 938 253 938 q 382 920 342 938 q 452 873 422 903 q 499 803 482 843 q 517 718 517 763 q 499 634 517 674 q 452 565 482 594 q 382 517 422 535 q 297 500 342 500 m 868 522 q 763 501 813 522 q 678 442 714 479 q 620 356 642 406 q 599 251 599 307 q 620 146 599 194 q 678 61 642 97 q 763 4 714 25 q 868 -17 813 -17 q 974 4 924 -17 q 1060 61 1024 25 q 1117 146 1096 97 q 1139 251 1139 194 q 1117 356 1139 307 q 1060 442 1096 406 q 974 501 1024 479 q 868 522 924 522 m 868 32 q 784 49 824 32 q 714 97 744 67 q 666 167 683 126 q 649 251 649 207 q 666 335 649 296 q 714 406 683 375 q 784 453 744 436 q 868 471 824 471 q 953 453 913 471 q 1023 406 993 436 q 1071 335 1053 375 q 1089 251 1089 296 q 1071 167 1089 207 q 1023 97 1053 126 q 953 49 993 67 q 868 32 913 32 z "},"Š":{"ha":667,"x_min":54,"x_max":636,"o":"m 608 768 l 608 979 l 550 979 l 550 928 q 522 952 538 940 q 485 974 507 964 q 433 991 463 985 q 363 997 403 997 q 266 980 313 997 q 185 931 219 963 q 129 857 150 900 q 108 763 108 814 q 125 665 108 704 q 172 599 142 626 q 243 551 203 571 q 332 514 283 532 q 425 477 382 496 q 500 432 468 458 q 551 369 532 406 q 569 278 569 332 q 552 185 569 226 q 503 115 535 144 q 431 71 472 86 q 342 56 389 56 q 260 69 296 56 q 197 103 225 82 q 147 151 168 125 q 113 204 126 178 l 113 285 l 54 285 l 54 0 l 113 0 l 113 97 q 201 23 143 57 q 342 -11 258 -11 q 465 11 410 -11 q 558 72 519 33 q 616 163 596 110 q 636 278 636 215 q 614 391 636 343 q 553 474 592 439 q 465 533 515 508 q 358 576 414 557 q 283 606 317 590 q 225 643 249 622 q 188 693 201 664 q 175 763 175 722 q 229 886 175 842 q 363 931 283 931 q 481 901 435 931 q 550 836 526 872 l 550 768 l 608 768 m 381 1031 l 510 1161 l 485 1188 l 365 1071 l 249 1188 l 225 1160 l 354 1031 l 381 1031 z "},"‹":{"ha":403,"x_min":43,"x_max":328,"o":"m 301 97 l 326 122 l 90 357 l 328 594 l 303 618 l 43 357 l 301 97 z "},"Œ":{"ha":1547,"x_min":53,"x_max":1483,"o":"m 561 53 q 390 88 471 53 q 249 183 310 122 q 154 324 189 243 q 119 494 119 404 q 154 666 119 586 q 249 806 189 746 q 390 901 310 867 q 561 936 471 936 q 733 901 653 936 q 874 806 814 867 q 969 666 935 746 q 1004 494 1004 586 q 969 324 1004 404 q 874 183 935 243 q 733 88 814 122 q 561 53 653 53 m 1007 740 q 927 847 974 799 q 823 931 881 896 q 699 984 765 965 q 561 1003 633 1003 q 363 963 456 1003 q 202 853 271 922 q 93 692 133 785 q 53 494 53 600 q 93 297 53 389 q 202 135 133 204 q 363 26 271 67 q 561 -14 456 -14 q 699 5 633 -14 q 823 58 765 24 q 927 142 881 93 q 1007 249 974 190 l 1007 58 l 901 58 l 901 0 l 1483 0 l 1483 167 l 1426 167 l 1426 58 l 1074 58 l 1074 522 l 1340 522 l 1340 451 l 1394 451 l 1394 651 l 1340 651 l 1340 581 l 1074 581 l 1074 933 l 1426 933 l 1426 829 l 1483 829 l 1483 992 l 901 992 l 901 933 l 1007 933 l 1007 740 z "},"‘":{"ha":226,"x_min":68,"x_max":153,"o":"m 153 753 l 153 851 l 107 851 l 107 919 q 115 974 107 953 q 132 1011 124 996 l 92 1011 q 76 975 83 996 q 68 919 68 954 l 68 753 l 153 753 z "},"’":{"ha":253,"x_min":96,"x_max":181,"o":"m 96 1024 l 96 925 l 142 925 l 142 857 q 133 802 142 824 q 117 765 125 781 l 157 765 q 173 801 165 781 q 181 857 181 822 l 181 1024 l 96 1024 z "},"“":{"ha":397,"x_min":68,"x_max":332,"o":"m 153 753 l 153 851 l 107 851 l 107 919 q 115 974 107 953 q 132 1011 124 996 l 92 1011 q 76 975 83 996 q 68 919 68 954 l 68 753 l 153 753 m 332 753 l 332 851 l 286 851 l 286 919 q 294 974 286 953 q 311 1011 303 996 l 271 1011 q 255 975 263 996 q 247 919 247 954 l 247 753 l 332 753 z "},"”":{"ha":418,"x_min":82,"x_max":346,"o":"m 261 1024 l 261 925 l 307 925 l 307 857 q 299 802 307 824 q 282 765 290 781 l 322 765 q 338 801 331 781 q 346 857 346 822 l 346 1024 l 261 1024 m 82 1024 l 82 925 l 128 925 l 128 857 q 119 802 128 824 q 103 765 111 781 l 143 765 q 159 801 151 781 q 167 857 167 822 l 167 1024 l 82 1024 z "},"•":{"ha":461,"x_min":58,"x_max":404,"o":"m 404 413 q 390 479 404 447 q 353 534 376 511 q 298 571 329 557 q 231 585 267 585 q 163 571 194 585 q 109 534 132 557 q 72 479 86 511 q 58 413 58 447 q 72 345 58 376 q 109 291 86 314 q 163 254 132 268 q 231 240 194 240 q 298 254 267 240 q 353 291 329 268 q 390 345 376 314 q 404 413 404 376 z "},"–":{"ha":574,"x_min":58,"x_max":518,"o":"m 518 403 l 58 403 l 58 346 l 518 346 l 518 403 z "},"—":{"ha":1169,"x_min":86,"x_max":1086,"o":"m 1086 403 l 86 403 l 86 346 l 1086 346 l 1086 403 z "},"˜":{"ha":601,"x_min":79,"x_max":525,"o":"m 79 881 l 118 849 q 149 879 129 863 q 207 896 169 896 q 255 887 239 896 q 290 864 271 878 q 331 840 308 851 q 393 829 354 829 q 475 851 444 829 q 525 894 506 874 l 485 925 q 453 899 472 913 q 393 885 433 885 q 350 895 369 885 q 308 921 331 906 q 269 942 292 932 q 214 951 246 951 q 163 944 185 951 q 124 926 140 936 q 97 903 107 915 q 79 881 86 890 z "},"™":{"ha":468,"x_min":54,"x_max":438,"o":"m 206 981 l 54 981 l 54 972 l 125 972 l 125 758 l 135 758 l 135 972 l 206 972 l 206 981 m 249 983 l 199 760 l 208 760 l 250 951 l 319 749 l 389 951 l 428 760 l 438 760 l 392 983 l 319 778 l 249 983 z "},"š":{"ha":536,"x_min":43,"x_max":508,"o":"m 453 197 q 403 87 453 125 q 274 49 353 49 q 170 69 215 49 q 92 118 125 89 l 92 189 l 43 189 l 43 0 l 92 0 l 92 50 q 172 7 126 22 q 274 -8 217 -8 q 365 6 322 -8 q 439 45 407 19 q 490 109 471 71 q 508 197 508 147 q 490 281 508 246 q 441 339 472 315 q 366 379 410 363 q 271 410 322 396 q 155 461 192 431 q 118 553 118 492 q 163 650 118 615 q 274 685 207 685 q 374 663 333 685 q 446 614 415 642 l 446 561 l 496 561 l 496 726 l 446 726 l 446 679 q 379 719 421 701 q 274 736 338 736 q 188 722 228 736 q 121 684 149 708 q 77 626 93 660 q 61 553 61 592 q 76 475 61 508 q 119 418 92 442 q 185 378 146 394 q 271 350 224 361 q 346 327 313 339 q 403 298 379 315 q 440 256 426 281 q 453 197 453 232 m 301 821 l 463 985 l 431 1017 l 282 871 l 136 1017 l 106 983 l 268 821 l 301 821 z "},"›":{"ha":403,"x_min":68,"x_max":354,"o":"m 68 596 l 306 357 l 69 121 l 93 96 l 354 357 l 92 619 l 68 596 z "},"œ":{"ha":1375,"x_min":50,"x_max":1332,"o":"m 674 360 q 656 243 674 300 q 602 141 638 186 q 514 69 567 96 q 390 42 461 42 q 266 69 319 42 q 177 141 213 96 q 124 243 142 186 q 107 360 107 300 q 124 476 107 419 q 177 578 142 533 q 266 651 213 624 q 390 679 319 679 q 514 651 461 679 q 602 578 567 624 q 656 476 638 533 q 674 360 674 419 m 1264 408 l 736 408 q 756 502 738 454 q 808 589 775 550 q 889 653 842 628 q 994 678 936 678 q 1103 653 1054 678 q 1186 588 1151 628 q 1241 501 1221 549 q 1264 408 1261 454 m 390 -15 q 495 1 447 -15 q 581 44 543 17 q 648 109 619 72 q 693 188 676 146 q 737 108 710 146 q 801 42 764 71 q 888 -3 839 14 q 994 -19 936 -19 q 1111 -5 1061 -19 q 1197 33 1161 10 q 1258 87 1233 57 q 1303 147 1283 117 l 1254 179 q 1215 128 1236 153 q 1163 83 1193 103 q 1091 50 1132 63 q 993 38 1050 38 q 883 65 932 38 q 801 136 835 92 q 750 237 768 181 q 732 351 732 293 l 1331 351 q 1332 371 1332 361 q 1332 394 1332 381 q 1308 517 1332 457 q 1240 626 1285 578 q 1133 705 1196 675 q 994 735 1071 735 q 813 678 890 735 q 694 531 736 621 q 649 610 676 572 q 582 676 621 647 q 495 720 543 704 q 390 736 447 736 q 244 704 308 736 q 138 619 181 672 q 72 499 94 567 q 50 360 50 431 q 72 221 50 289 q 138 101 94 153 q 244 17 181 49 q 390 -15 308 -15 z "},"Ÿ":{"ha":790,"x_min":42,"x_max":753,"o":"m 343 1107 q 331 1139 343 1126 q 299 1151 318 1151 q 267 1139 279 1151 q 254 1107 254 1126 q 267 1075 254 1088 q 299 1063 279 1063 q 331 1075 318 1063 q 343 1107 343 1088 m 535 1107 q 522 1139 535 1126 q 490 1151 510 1151 q 458 1139 471 1151 q 446 1107 446 1126 q 458 1075 446 1088 q 490 1063 471 1063 q 522 1075 510 1063 q 535 1107 535 1088 m 250 992 l 42 992 l 42 933 l 118 933 l 363 503 l 363 58 l 285 58 l 285 0 l 507 0 l 507 58 l 429 58 l 429 503 l 674 933 l 753 933 l 753 992 l 543 992 l 543 933 l 607 933 l 396 557 l 185 933 l 250 933 l 250 992 z "},"¡":{"ha":199,"x_min":53,"x_max":153,"o":"m 75 -103 l 132 -103 l 132 636 l 75 636 l 75 -103 m 153 843 q 139 878 153 865 q 101 892 125 892 q 67 878 82 892 q 53 843 53 865 q 67 808 53 822 q 103 794 82 794 q 139 808 125 794 q 153 843 153 822 z "},"¢":{"ha":654,"x_min":36,"x_max":610,"o":"m 610 176 l 610 244 q 523 186 572 204 q 413 168 474 168 l 413 808 q 492 799 457 808 q 560 775 528 790 l 560 710 l 610 710 l 610 876 l 560 876 l 560 839 q 494 857 532 850 q 413 864 457 864 l 413 947 l 354 947 l 354 861 q 217 819 276 853 q 118 735 158 786 q 57 620 78 685 q 36 488 36 556 q 58 352 36 417 q 119 238 79 288 q 219 155 160 188 q 354 113 279 122 l 354 29 l 413 29 l 413 113 q 528 130 479 113 q 610 176 578 147 m 354 168 q 243 210 292 181 q 162 283 194 240 q 113 378 129 325 q 96 488 96 431 q 115 601 96 547 q 167 699 133 656 q 249 769 201 742 q 354 804 296 797 l 354 168 z "},"£":{"ha":610,"x_min":25,"x_max":597,"o":"m 140 793 q 187 908 140 872 q 306 943 233 943 q 440 905 389 943 q 503 799 490 867 l 560 799 q 528 891 551 853 q 469 953 504 929 q 392 988 435 976 q 304 999 350 999 q 213 983 254 999 q 141 940 171 968 q 94 875 111 913 q 78 793 78 838 q 103 675 78 728 q 160 578 129 622 q 228 483 196 525 q 269 399 260 440 l 125 399 l 125 349 l 276 349 q 246 233 276 296 q 158 113 215 169 q 90 92 124 110 q 25 38 56 75 l 63 -1 q 116 44 90 29 q 190 60 142 60 q 251 50 225 60 q 301 25 278 40 q 352 1 325 10 q 415 -8 379 -8 q 526 15 482 -8 q 597 67 571 39 l 557 106 q 497 64 535 82 q 415 46 460 46 q 360 56 383 46 q 318 78 336 67 q 276 100 296 90 q 232 113 256 110 q 306 219 279 157 q 332 349 332 281 l 488 349 l 488 399 l 329 399 q 281 505 318 454 q 207 608 243 556 q 160 695 179 650 q 140 793 140 740 z "},"¤":{"ha":674,"x_min":36,"x_max":639,"o":"m 178 864 q 213 946 178 917 q 301 975 247 975 q 348 967 325 975 q 389 947 371 960 q 418 917 407 933 q 429 885 429 901 l 429 715 l 351 715 l 351 667 l 429 667 l 429 50 l 344 50 l 344 0 l 571 0 l 571 50 l 486 50 l 486 667 l 622 667 l 622 715 l 486 715 l 486 886 q 509 958 486 939 q 568 976 532 976 q 610 973 596 976 q 639 964 625 969 l 639 1021 q 610 1031 624 1028 q 568 1033 596 1033 q 443 963 472 1033 q 426 985 436 974 q 399 1008 415 997 q 358 1024 382 1018 q 301 1031 335 1031 q 233 1019 265 1031 q 175 988 200 1008 q 135 939 150 968 q 121 872 121 910 l 121 715 l 43 715 l 43 667 l 121 667 l 121 50 l 36 50 l 36 0 l 263 0 l 263 50 l 178 50 l 178 667 l 311 667 l 311 715 l 178 715 l 178 864 z "},"¥":{"ha":772,"x_min":44,"x_max":756,"o":"m 115 943 l 367 503 l 225 503 l 225 454 l 367 454 l 367 368 l 225 368 l 225 319 l 367 319 l 367 50 l 289 50 l 289 0 l 501 0 l 501 50 l 424 50 l 424 319 l 564 319 l 564 368 l 424 368 l 424 454 l 564 454 l 564 503 l 424 503 l 685 943 l 756 943 l 756 992 l 553 992 l 553 943 l 624 943 l 399 557 l 175 943 l 246 943 l 246 992 l 44 992 l 44 943 l 115 943 z "},"¦":{"ha":185,"x_min":75,"x_max":124,"o":"m 124 631 l 124 1049 l 75 1049 l 75 631 l 124 631 m 124 0 l 124 418 l 75 418 l 75 0 l 124 0 z "},"§":{"ha":532,"x_min":51,"x_max":481,"o":"m 456 111 q 430 222 456 178 q 361 292 404 265 q 408 322 386 306 q 445 362 429 339 q 471 415 461 385 q 481 483 481 444 q 464 569 481 531 q 419 635 447 607 q 351 681 390 663 q 267 706 313 699 q 172 751 204 715 q 139 840 139 786 q 147 882 139 861 q 169 919 154 903 q 206 947 183 936 q 258 958 229 958 q 338 934 306 958 q 394 867 371 910 l 436 894 q 410 938 425 917 q 374 976 394 960 q 324 1001 353 992 q 258 1011 296 1011 q 183 997 215 1011 q 127 958 150 982 q 92 902 104 933 q 81 838 81 871 q 90 777 81 803 q 113 733 99 751 q 144 701 126 714 q 179 678 161 688 q 138 655 160 669 q 97 617 115 640 q 65 560 78 594 q 51 479 51 526 q 68 396 51 432 q 113 333 85 360 q 178 292 142 307 q 251 272 214 276 q 314 253 288 268 q 358 215 340 238 q 385 165 376 192 q 393 111 393 138 q 358 23 393 60 q 258 -14 324 -14 q 204 -5 228 -14 q 164 19 181 4 q 135 54 147 35 q 117 93 124 74 l 65 69 q 133 -28 85 13 q 258 -68 181 -68 q 401 -19 346 -68 q 456 111 456 29 m 115 486 q 123 535 115 510 q 148 583 131 561 q 192 618 165 604 q 256 632 218 632 q 379 588 340 632 q 418 479 418 544 q 378 378 418 417 q 267 340 339 340 q 212 349 239 340 q 163 377 185 358 q 128 423 142 396 q 115 486 115 450 z "},"¨":{"ha":439,"x_min":76,"x_max":357,"o":"m 165 915 q 153 947 165 935 q 121 960 140 960 q 89 947 101 960 q 76 915 76 935 q 89 883 76 896 q 121 871 101 871 q 153 883 140 871 q 165 915 165 896 m 357 915 q 344 947 357 935 q 313 960 332 960 q 281 947 293 960 q 268 915 268 935 q 281 883 268 896 q 313 871 293 871 q 344 883 332 871 q 357 915 357 896 z "},"©":{"ha":817,"x_min":47,"x_max":778,"o":"m 260 547 q 269 599 260 574 q 298 643 279 624 q 346 674 317 663 q 413 686 375 686 q 490 671 457 686 q 544 639 522 656 l 544 672 q 493 700 524 686 q 413 714 463 714 q 333 699 367 714 q 277 662 300 685 q 243 608 254 639 q 232 547 232 578 q 243 485 232 515 q 277 432 254 456 q 334 394 300 408 q 413 379 368 379 q 497 396 465 379 q 544 428 528 413 l 544 461 q 491 422 521 438 q 413 407 461 407 q 346 419 375 407 q 298 451 317 431 q 269 496 279 471 q 260 547 260 521 m 778 540 q 749 682 778 615 q 671 799 721 749 q 554 877 621 849 q 413 906 488 906 q 271 877 338 906 q 154 799 204 849 q 76 682 104 749 q 47 540 47 615 q 76 399 47 465 q 154 282 104 332 q 271 203 204 232 q 413 175 338 175 q 554 203 488 175 q 671 282 621 232 q 749 399 721 332 q 778 540 778 465 m 76 542 q 103 673 76 611 q 175 781 129 735 q 283 853 221 826 q 414 879 344 879 q 545 853 483 879 q 653 781 607 826 q 725 673 699 735 q 751 542 751 611 q 725 410 751 472 q 653 303 699 349 q 545 231 607 257 q 414 204 483 204 q 283 231 344 204 q 175 303 221 257 q 103 410 129 349 q 76 542 76 472 z "},"ª":{"ha":560,"x_min":60,"x_max":526,"o":"m 526 432 l 60 432 l 60 397 l 526 397 l 526 432 m 281 933 q 328 926 304 933 q 370 904 351 919 q 401 866 389 889 q 413 813 413 843 l 413 765 q 356 813 393 792 q 260 835 319 835 q 188 822 219 835 q 134 788 156 810 q 101 737 113 765 q 89 678 89 708 q 100 620 89 649 q 132 569 111 592 q 185 534 153 547 q 258 521 217 521 q 318 528 293 521 q 361 544 343 535 q 392 566 379 554 q 413 588 404 578 l 413 529 l 507 529 l 507 560 l 446 560 l 446 819 q 399 929 446 890 q 281 968 351 968 q 202 955 240 968 q 139 917 164 942 l 158 889 q 210 921 178 908 q 281 933 243 933 m 124 678 q 132 722 124 700 q 157 763 140 744 q 199 791 174 781 q 260 801 225 801 q 324 791 296 801 q 369 763 351 781 q 397 724 388 746 q 406 678 406 701 q 397 633 406 654 q 369 594 388 611 q 324 566 351 576 q 260 556 296 556 q 158 593 192 556 q 124 678 124 631 z "},"«":{"ha":610,"x_min":51,"x_max":549,"o":"m 310 97 l 335 122 l 99 357 l 336 594 l 311 618 l 51 357 l 310 97 m 524 97 l 547 122 l 311 357 l 549 594 l 525 618 l 264 357 l 524 97 z "},"¬":{"ha":383,"x_min":31,"x_max":354,"o":"m 354 543 l 31 543 l 31 515 l 354 515 l 354 543 m 204 1046 l 142 1046 l 142 1022 l 179 1022 l 179 622 l 142 622 l 142 600 l 243 600 l 243 622 l 204 622 l 204 1046 m 326 338 q 291 417 326 385 q 194 449 256 449 q 98 417 133 449 q 63 338 63 385 q 72 296 63 314 q 93 265 81 278 q 120 246 106 253 q 146 236 135 239 q 117 224 133 232 q 88 201 101 215 q 65 166 75 186 q 56 119 56 146 q 65 73 56 96 q 92 32 74 50 q 135 3 110 14 q 194 -8 161 -8 q 253 3 228 -8 q 297 32 279 14 q 324 73 315 50 q 333 119 333 96 q 323 167 333 146 q 298 202 313 188 q 267 225 283 217 q 239 236 251 233 q 265 246 250 239 q 294 265 281 253 q 317 294 307 276 q 326 338 326 313 m 301 338 q 274 278 301 306 q 194 251 247 251 q 115 278 142 251 q 89 338 89 306 q 115 397 89 369 q 194 424 142 424 q 274 397 247 424 q 301 338 301 369 m 306 118 q 278 48 306 79 q 194 17 250 17 q 112 48 139 17 q 85 118 85 79 q 112 187 85 156 q 194 218 139 218 q 278 187 250 218 q 306 118 306 156 z "},"®":{"ha":561,"x_min":57,"x_max":496,"o":"m 368 813 q 349 861 368 842 q 297 881 329 881 l 200 881 l 200 628 l 219 628 l 219 744 l 263 744 l 343 628 l 368 628 l 286 744 l 297 744 q 349 761 329 744 q 368 813 368 778 m 349 813 q 299 764 349 764 l 219 764 l 219 861 l 299 861 q 336 847 324 861 q 349 813 349 832 m 496 749 q 478 834 496 794 q 431 903 461 874 q 362 951 401 933 q 276 968 322 968 q 191 951 231 968 q 122 903 151 933 q 74 834 92 874 q 57 749 57 794 q 74 663 57 703 q 122 594 92 624 q 191 547 151 564 q 276 529 231 529 q 362 547 322 529 q 431 594 401 564 q 478 663 461 624 q 496 749 496 703 m 78 749 q 93 826 78 790 q 135 890 108 863 q 199 932 163 917 q 276 947 235 947 q 354 932 318 947 q 417 890 390 917 q 460 826 444 863 q 475 749 475 790 q 460 671 475 707 q 417 608 444 635 q 354 565 390 581 q 276 550 318 550 q 199 565 235 550 q 135 608 163 581 q 93 671 108 635 q 78 749 78 707 z "},"¯":{"ha":624,"x_min":65,"x_max":575,"o":"m 575 943 l 65 943 l 65 893 l 575 893 l 575 943 z "},"°":{"ha":294,"x_min":33,"x_max":261,"o":"m 261 856 q 228 936 261 903 q 147 969 194 969 q 67 936 100 969 q 33 856 33 903 q 67 775 33 808 q 147 742 100 742 q 228 775 194 742 q 261 856 261 808 m 61 856 q 86 917 61 892 q 147 942 111 942 q 208 917 183 942 q 233 856 233 892 q 208 794 233 819 q 147 769 183 769 q 86 794 111 769 q 61 856 61 819 z "},"±":{"ha":532,"x_min":100,"x_max":440,"o":"m 242 544 l 100 544 l 100 488 l 242 488 l 242 346 l 299 346 l 299 488 l 440 488 l 440 544 l 299 544 l 299 686 l 242 686 l 242 544 m 440 293 l 100 293 l 100 236 l 440 236 l 440 293 z "},"²":{"ha":383,"x_min":60,"x_max":326,"o":"m 65 935 l 93 935 q 124 991 101 967 q 196 1015 147 1015 q 272 991 244 1015 q 300 932 300 967 q 274 866 300 892 q 210 811 247 840 q 165 776 188 794 q 124 738 143 758 q 91 695 106 718 q 71 643 76 672 l 60 590 l 326 590 l 326 617 l 97 617 l 101 639 q 150 724 114 690 q 226 790 186 758 q 295 853 264 821 q 326 932 326 886 q 294 1008 326 975 q 196 1040 261 1040 q 141 1031 164 1040 q 102 1006 118 1021 q 78 972 86 992 q 65 935 69 953 z "},"³":{"ha":383,"x_min":58,"x_max":331,"o":"m 64 946 l 90 946 q 98 972 92 958 q 117 996 104 985 q 149 1014 129 1007 q 196 1021 168 1021 q 273 998 243 1021 q 303 933 303 975 q 294 894 303 910 q 272 867 285 878 q 242 852 258 857 q 208 847 225 847 l 169 847 l 169 821 l 208 821 q 275 793 244 821 q 306 714 306 765 q 295 667 306 686 q 269 635 285 647 q 233 619 253 624 q 194 614 213 614 q 119 635 146 614 q 85 688 92 656 l 58 688 q 97 619 65 649 q 196 589 129 589 q 245 596 221 589 q 288 618 269 603 q 319 657 307 633 q 331 714 331 681 q 306 796 331 767 q 253 833 281 825 q 277 842 264 835 q 301 863 290 850 q 320 893 313 875 q 328 933 328 911 q 292 1014 328 982 q 196 1046 257 1046 q 137 1036 161 1046 q 97 1012 113 1026 q 74 980 82 997 q 64 946 65 963 z "},"´":{"ha":368,"x_min":86,"x_max":300,"o":"m 300 1011 l 260 1051 l 86 878 l 126 838 l 300 1011 z "},"µ":{"ha":674,"x_min":36,"x_max":636,"o":"m 553 36 q 506 53 528 36 q 483 124 483 69 l 483 667 l 618 667 l 618 715 l 483 715 l 483 872 q 469 936 483 907 q 432 986 456 965 q 374 1019 408 1007 q 301 1031 340 1031 q 233 1019 265 1031 q 175 988 200 1008 q 135 939 150 968 q 121 872 121 910 l 121 715 l 43 715 l 43 667 l 121 667 l 121 50 l 36 50 l 36 0 l 263 0 l 263 50 l 178 50 l 178 667 l 311 667 l 311 715 l 178 715 l 178 864 q 213 947 178 919 q 301 975 247 975 q 392 947 357 975 q 426 864 426 918 l 426 715 l 347 715 l 347 667 l 426 667 l 426 110 q 436 49 426 74 q 463 8 446 24 q 501 -13 479 -7 q 546 -19 522 -19 q 602 -12 582 -19 q 636 3 622 -4 l 636 60 q 601 43 621 50 q 553 36 582 36 z "},"¶":{"ha":701,"x_min":68,"x_max":619,"o":"m 488 -85 l 488 992 l 338 992 q 225 973 275 992 q 140 921 175 954 q 87 842 106 888 q 68 744 68 797 q 87 646 68 692 q 140 567 106 600 q 225 515 175 533 q 338 496 275 496 l 431 496 l 431 -85 l 488 -85 m 619 -85 l 619 992 l 563 992 l 563 -85 l 619 -85 z "},"·":{"ha":326,"x_min":85,"x_max":232,"o":"m 232 549 q 211 601 232 581 q 158 622 190 622 q 106 601 128 622 q 85 549 85 581 q 106 497 85 518 q 158 475 128 475 q 211 497 190 475 q 232 549 232 518 z "},"¸":{"ha":290,"x_min":72,"x_max":246,"o":"m 190 -57 l 208 0 l 147 0 l 125 -62 q 166 -85 147 -71 q 185 -118 185 -99 q 174 -149 185 -140 q 149 -157 164 -157 q 107 -148 129 -157 q 72 -124 85 -139 l 72 -179 q 109 -204 88 -194 q 153 -214 131 -214 q 219 -191 193 -214 q 246 -126 246 -168 q 227 -81 246 -99 q 190 -57 208 -64 z "},"¹":{"ha":383,"x_min":146,"x_max":247,"o":"m 208 1047 l 146 1047 l 146 1024 l 183 1024 l 183 624 l 146 624 l 146 601 l 247 601 l 247 624 l 208 624 l 208 1047 z "},"º":{"ha":544,"x_min":64,"x_max":485,"o":"m 485 432 l 68 432 l 68 397 l 485 397 l 485 432 m 472 749 q 459 832 472 792 q 419 904 446 872 q 356 956 393 936 q 268 975 318 975 q 181 956 218 975 q 117 904 143 936 q 77 832 90 872 q 64 749 64 792 q 77 665 64 706 q 117 592 90 624 q 181 542 143 561 q 268 522 218 522 q 356 542 318 522 q 419 592 393 561 q 459 665 446 624 q 472 749 472 706 m 439 749 q 428 678 439 713 q 397 617 418 644 q 343 574 375 590 q 268 557 311 557 q 193 574 225 557 q 140 617 161 590 q 108 678 118 644 q 97 749 97 713 q 108 818 97 783 q 140 880 118 853 q 193 924 161 907 q 268 940 225 940 q 343 924 311 940 q 397 880 375 907 q 428 818 418 853 q 439 749 439 783 z "},"»":{"ha":610,"x_min":68,"x_max":561,"o":"m 68 596 l 306 357 l 69 121 l 93 96 l 354 357 l 92 619 l 68 596 m 275 596 l 513 357 l 276 121 l 300 96 l 561 357 l 299 619 l 275 596 z "},"¼":{"ha":383,"x_min":31,"x_max":358,"o":"m 358 543 l 36 543 l 36 515 l 358 515 l 358 543 m 208 1047 l 146 1047 l 146 1024 l 183 1024 l 183 624 l 146 624 l 146 601 l 247 601 l 247 624 l 208 624 l 208 1047 m 276 135 l 276 454 l 257 454 l 31 128 l 31 110 l 250 110 l 250 28 l 225 28 l 225 1 l 301 1 l 301 28 l 276 28 l 276 110 l 317 110 l 317 135 l 276 135 m 250 135 l 67 135 l 250 399 l 250 135 z "},"½":{"ha":383,"x_min":31,"x_max":354,"o":"m 354 540 l 31 540 l 31 513 l 354 513 l 354 540 m 210 1046 l 147 1046 l 147 1022 l 185 1022 l 185 622 l 147 622 l 147 600 l 249 600 l 249 622 l 210 622 l 210 1046 m 63 343 l 90 343 q 122 399 99 375 q 193 424 144 424 q 269 399 242 424 q 297 340 297 375 q 271 274 297 300 q 207 219 244 249 q 163 185 185 203 q 122 147 140 167 q 88 103 103 126 q 68 51 74 81 l 57 -1 l 324 -1 l 324 25 l 94 25 l 99 47 q 147 133 111 99 q 224 199 183 167 q 292 262 261 229 q 324 340 324 294 q 291 416 324 383 q 193 449 258 449 q 138 439 161 449 q 99 415 115 429 q 75 381 83 400 q 63 343 67 361 z "},"¾":{"ha":383,"x_min":31,"x_max":358,"o":"m 358 543 l 36 543 l 36 515 l 358 515 l 358 543 m 64 946 l 90 946 q 98 972 92 958 q 117 996 104 985 q 149 1014 129 1007 q 196 1021 168 1021 q 273 998 243 1021 q 303 933 303 975 q 294 894 303 910 q 272 867 285 878 q 242 852 258 857 q 208 847 225 847 l 169 847 l 169 821 l 208 821 q 275 793 244 821 q 306 714 306 765 q 295 667 306 686 q 269 635 285 647 q 233 619 253 624 q 194 614 213 614 q 119 635 146 614 q 85 688 92 656 l 58 688 q 97 619 65 649 q 196 589 129 589 q 245 596 221 589 q 288 618 269 603 q 319 657 307 633 q 331 714 331 681 q 306 796 331 767 q 253 833 281 825 q 277 842 264 835 q 301 863 290 850 q 320 893 313 875 q 328 933 328 911 q 292 1014 328 982 q 196 1046 257 1046 q 137 1036 161 1046 q 97 1012 113 1026 q 74 980 82 997 q 64 946 65 963 m 276 135 l 276 454 l 257 454 l 31 128 l 31 110 l 250 110 l 250 28 l 225 28 l 225 1 l 301 1 l 301 28 l 276 28 l 276 110 l 317 110 l 317 135 l 276 135 m 250 135 l 67 135 l 250 399 l 250 135 z "},"¿":{"ha":610,"x_min":42,"x_max":578,"o":"m 308 454 q 209 433 257 450 q 124 381 161 415 q 64 294 86 347 q 42 164 42 240 q 61 51 42 101 q 116 -36 81 0 q 203 -92 151 -72 q 317 -111 254 -111 q 420 -94 376 -111 q 495 -50 464 -76 q 546 9 526 -24 q 578 72 565 42 l 525 97 q 499 44 515 71 q 458 -6 483 17 q 398 -42 433 -28 q 317 -56 363 -56 q 156 4 214 -56 q 97 164 97 64 q 116 275 97 229 q 169 349 135 321 q 254 391 204 378 q 365 406 304 404 l 365 642 l 308 642 l 308 454 m 288 850 q 302 815 288 829 q 338 800 317 800 q 373 815 358 800 q 388 850 388 829 q 373 885 388 871 q 338 900 358 900 q 302 885 317 900 q 288 850 288 871 z "},"À":{"ha":1013,"x_min":46,"x_max":972,"o":"m 504 1051 l 536 1083 l 399 1222 l 365 1189 l 504 1051 m 514 929 l 719 363 l 314 363 l 514 929 m 300 58 l 207 58 l 293 304 l 739 304 l 826 58 l 732 58 l 732 0 l 972 0 l 972 58 l 894 58 l 581 933 l 658 933 l 658 992 l 369 992 l 369 933 l 447 933 l 133 58 l 46 58 l 46 0 l 300 0 l 300 58 z "},"Á":{"ha":1013,"x_min":46,"x_max":972,"o":"m 651 1189 l 619 1222 l 482 1083 l 513 1051 l 651 1189 m 514 929 l 719 363 l 314 363 l 514 929 m 300 58 l 207 58 l 293 304 l 739 304 l 826 58 l 732 58 l 732 0 l 972 0 l 972 58 l 894 58 l 581 933 l 658 933 l 658 992 l 369 992 l 369 933 l 447 933 l 133 58 l 46 58 l 46 0 l 300 0 l 300 58 z "},"Â":{"ha":1013,"x_min":46,"x_max":972,"o":"m 497 1210 l 367 1079 l 393 1053 l 510 1171 l 628 1053 l 653 1081 l 524 1210 l 497 1210 m 514 929 l 719 363 l 314 363 l 514 929 m 300 58 l 207 58 l 293 304 l 739 304 l 826 58 l 732 58 l 732 0 l 972 0 l 972 58 l 894 58 l 581 933 l 658 933 l 658 992 l 369 992 l 369 933 l 447 933 l 133 58 l 46 58 l 46 0 l 300 0 l 300 58 z "},"Ã":{"ha":1013,"x_min":46,"x_max":972,"o":"m 293 1118 l 332 1088 q 364 1117 343 1101 q 428 1133 385 1133 q 472 1124 456 1133 q 504 1103 489 1115 q 546 1078 524 1090 q 607 1067 568 1067 q 689 1090 658 1067 q 739 1132 719 1113 l 699 1164 q 667 1136 686 1150 q 607 1122 647 1122 q 565 1133 583 1122 q 524 1160 546 1144 q 483 1180 506 1171 q 428 1189 460 1189 q 376 1181 399 1189 q 338 1163 354 1174 q 310 1140 321 1153 q 293 1118 300 1128 m 514 929 l 719 363 l 314 363 l 514 929 m 300 58 l 207 58 l 293 304 l 739 304 l 826 58 l 732 58 l 732 0 l 972 0 l 972 58 l 894 58 l 581 933 l 658 933 l 658 992 l 369 992 l 369 933 l 447 933 l 133 58 l 46 58 l 46 0 l 300 0 l 300 58 z "},"Ä":{"ha":1006,"x_min":46,"x_max":972,"o":"m 460 1107 q 447 1139 460 1126 q 415 1151 435 1151 q 383 1139 396 1151 q 371 1107 371 1126 q 383 1075 371 1088 q 415 1063 396 1063 q 447 1075 435 1063 q 460 1107 460 1088 m 651 1107 q 639 1139 651 1126 q 607 1151 626 1151 q 575 1139 588 1151 q 563 1107 563 1126 q 575 1075 563 1088 q 607 1063 588 1063 q 639 1075 626 1063 q 651 1107 651 1088 m 514 929 l 719 363 l 314 363 l 514 929 m 300 58 l 207 58 l 293 304 l 739 304 l 826 58 l 732 58 l 732 0 l 972 0 l 972 58 l 894 58 l 581 933 l 658 933 l 658 992 l 369 992 l 369 933 l 447 933 l 133 58 l 46 58 l 46 0 l 300 0 l 300 58 z "},"Å":{"ha":1006,"x_min":46,"x_max":972,"o":"m 629 1132 q 596 1213 629 1179 q 515 1246 563 1246 q 435 1213 468 1246 q 401 1132 401 1179 q 435 1051 401 1085 q 515 1018 468 1018 q 596 1051 563 1018 q 629 1132 629 1085 m 429 1132 q 454 1193 429 1168 q 515 1218 479 1218 q 576 1193 551 1218 q 601 1132 601 1168 q 576 1071 601 1096 q 515 1046 551 1046 q 454 1071 479 1046 q 429 1132 429 1096 m 514 929 l 719 363 l 314 363 l 514 929 m 300 58 l 207 58 l 293 304 l 739 304 l 826 58 l 732 58 l 732 0 l 972 0 l 972 58 l 894 58 l 581 933 l 658 933 l 658 992 l 369 992 l 369 933 l 447 933 l 133 58 l 46 58 l 46 0 l 300 0 l 300 58 z "},"Æ":{"ha":1038,"x_min":19,"x_max":994,"o":"m 518 932 l 518 510 l 351 510 l 518 932 m 994 992 l 344 992 l 344 933 l 451 933 l 104 58 l 19 58 l 19 0 l 268 0 l 268 58 l 171 58 l 331 456 l 518 456 l 518 58 l 413 58 l 413 0 l 994 0 l 994 167 l 936 167 l 936 58 l 585 58 l 585 522 l 847 522 l 847 451 l 906 451 l 906 651 l 847 651 l 847 581 l 585 581 l 585 933 l 936 933 l 936 829 l 994 829 l 994 992 z "},"Ç":{"ha":976,"x_min":53,"x_max":929,"o":"m 589 -14 q 710 5 657 -11 q 804 43 764 21 q 872 90 844 65 q 918 136 900 115 l 918 221 q 855 158 890 189 q 776 104 819 128 q 678 67 732 81 q 561 53 625 53 q 385 86 467 53 q 245 178 304 119 q 153 319 186 238 q 119 494 119 400 q 153 670 119 589 q 245 810 186 751 q 385 903 304 869 q 561 936 467 936 q 736 902 664 936 q 863 822 808 868 l 863 735 l 929 735 l 929 981 l 863 981 l 863 904 q 812 939 842 921 q 744 971 782 957 q 660 994 706 985 q 561 1003 614 1003 q 361 964 454 1003 q 199 856 268 925 q 92 694 131 788 q 53 494 53 601 q 89 301 53 392 q 189 144 125 211 q 340 35 253 76 q 529 -12 428 -7 l 499 -87 q 547 -100 529 -87 q 565 -131 565 -112 q 553 -161 565 -153 q 526 -169 542 -169 q 487 -160 507 -169 q 454 -136 467 -151 l 454 -192 q 490 -217 469 -207 q 535 -226 511 -226 q 601 -203 575 -226 q 626 -139 626 -181 q 608 -92 626 -111 q 571 -65 590 -72 l 589 -14 z "},"È":{"ha":674,"x_min":38,"x_max":619,"o":"m 376 1051 l 408 1083 l 271 1222 l 238 1189 l 376 1051 m 619 829 l 619 992 l 38 992 l 38 933 l 143 933 l 143 58 l 38 58 l 38 0 l 619 0 l 619 167 l 561 167 l 561 58 l 210 58 l 210 522 l 472 522 l 472 451 l 531 451 l 531 651 l 472 651 l 472 581 l 210 581 l 210 933 l 561 933 l 561 829 l 619 829 z "},"É":{"ha":674,"x_min":38,"x_max":619,"o":"m 488 1189 l 456 1222 l 318 1083 l 349 1051 l 488 1189 m 619 829 l 619 992 l 38 992 l 38 933 l 143 933 l 143 58 l 38 58 l 38 0 l 619 0 l 619 167 l 561 167 l 561 58 l 210 58 l 210 522 l 472 522 l 472 451 l 531 451 l 531 651 l 472 651 l 472 581 l 210 581 l 210 933 l 561 933 l 561 829 l 619 829 z "},"Ê":{"ha":674,"x_min":38,"x_max":619,"o":"m 353 1210 l 222 1079 l 249 1053 l 365 1171 l 483 1053 l 508 1081 l 378 1210 l 353 1210 m 619 829 l 619 992 l 38 992 l 38 933 l 143 933 l 143 58 l 38 58 l 38 0 l 619 0 l 619 167 l 561 167 l 561 58 l 210 58 l 210 522 l 472 522 l 472 451 l 531 451 l 531 651 l 472 651 l 472 581 l 210 581 l 210 933 l 561 933 l 561 829 l 619 829 z "},"Ë":{"ha":674,"x_min":38,"x_max":619,"o":"m 317 1107 q 304 1139 317 1126 q 272 1151 292 1151 q 240 1139 253 1151 q 228 1107 228 1126 q 240 1075 228 1088 q 272 1063 253 1063 q 304 1075 292 1063 q 317 1107 317 1088 m 508 1107 q 496 1139 508 1126 q 464 1151 483 1151 q 432 1139 444 1151 q 419 1107 419 1126 q 432 1075 419 1088 q 464 1063 444 1063 q 496 1075 483 1063 q 508 1107 508 1088 m 619 829 l 619 992 l 38 992 l 38 933 l 143 933 l 143 58 l 38 58 l 38 0 l 619 0 l 619 167 l 561 167 l 561 58 l 210 58 l 210 522 l 472 522 l 472 451 l 531 451 l 531 651 l 472 651 l 472 581 l 210 581 l 210 933 l 561 933 l 561 829 l 619 829 z "},"Ì":{"ha":419,"x_min":51,"x_max":347,"o":"m 190 1051 l 221 1083 l 83 1222 l 51 1189 l 190 1051 m 347 933 l 347 992 l 78 992 l 78 933 l 179 933 l 179 58 l 78 58 l 78 0 l 347 0 l 347 58 l 246 58 l 246 933 l 347 933 z "},"Í":{"ha":419,"x_min":78,"x_max":363,"o":"m 363 1189 l 331 1222 l 193 1083 l 224 1051 l 363 1189 m 347 933 l 347 992 l 78 992 l 78 933 l 179 933 l 179 58 l 78 58 l 78 0 l 347 0 l 347 58 l 246 58 l 246 933 l 347 933 z "},"Î":{"ha":419,"x_min":65,"x_max":351,"o":"m 196 1210 l 65 1079 l 90 1053 l 208 1171 l 326 1053 l 351 1081 l 221 1210 l 196 1210 m 347 933 l 347 992 l 78 992 l 78 933 l 179 933 l 179 58 l 78 58 l 78 0 l 347 0 l 347 58 l 246 58 l 246 933 l 347 933 z "},"Ï":{"ha":419,"x_min":69,"x_max":350,"o":"m 158 1107 q 146 1139 158 1126 q 114 1151 133 1151 q 82 1139 94 1151 q 69 1107 69 1126 q 82 1075 69 1088 q 114 1063 94 1063 q 146 1075 133 1063 q 158 1107 158 1088 m 350 1107 q 338 1139 350 1126 q 306 1151 325 1151 q 274 1139 286 1151 q 261 1107 261 1126 q 274 1075 261 1088 q 306 1063 286 1063 q 338 1075 325 1063 q 350 1107 350 1088 m 347 933 l 347 992 l 78 992 l 78 933 l 179 933 l 179 58 l 78 58 l 78 0 l 347 0 l 347 58 l 246 58 l 246 933 l 347 933 z "},"Ð":{"ha":935,"x_min":38,"x_max":918,"o":"m 211 546 l 211 933 l 450 933 q 605 901 532 933 q 733 811 678 869 q 819 673 788 753 q 851 497 851 593 q 819 321 851 401 q 731 182 786 240 q 602 91 675 124 q 450 58 529 58 l 211 58 l 211 488 l 469 488 l 469 546 l 211 546 m 144 488 l 144 58 l 39 58 l 39 0 l 454 0 q 628 34 544 0 q 776 133 711 68 q 879 290 840 197 q 918 497 918 382 q 880 703 918 611 q 778 858 842 794 q 632 957 715 922 q 457 992 549 992 l 39 992 l 39 933 l 144 933 l 144 546 l 38 546 l 38 488 l 144 488 z "},"Ñ":{"ha":1049,"x_min":35,"x_max":1024,"o":"m 281 1118 l 319 1088 q 351 1117 331 1101 q 415 1133 372 1133 q 459 1124 442 1133 q 492 1103 476 1115 q 533 1078 510 1090 q 594 1067 556 1067 q 640 1073 619 1067 q 676 1089 660 1079 q 703 1110 692 1099 q 725 1132 715 1122 l 686 1164 q 654 1136 674 1150 q 594 1122 635 1122 q 552 1133 571 1122 q 510 1160 533 1144 q 470 1180 493 1171 q 415 1189 447 1189 q 364 1181 386 1189 q 325 1163 342 1174 q 298 1140 308 1153 q 281 1118 288 1128 m 871 933 l 871 144 l 158 992 l 35 992 l 35 933 l 119 933 l 119 58 l 35 58 l 35 0 l 271 0 l 271 58 l 186 58 l 186 847 l 904 -3 l 938 -3 l 938 933 l 1024 933 l 1024 992 l 785 992 l 785 933 l 871 933 z "},"Ò":{"ha":1117,"x_min":53,"x_max":1071,"o":"m 572 1051 l 604 1083 l 467 1222 l 433 1189 l 572 1051 m 561 -14 q 759 26 667 -14 q 921 135 851 67 q 1031 297 990 204 q 1071 494 1071 389 q 1031 692 1071 600 q 921 853 990 785 q 759 963 851 922 q 561 1003 667 1003 q 363 963 456 1003 q 202 853 271 922 q 93 692 133 785 q 53 494 53 600 q 93 297 53 389 q 202 135 133 204 q 363 26 271 67 q 561 -14 456 -14 m 561 53 q 390 88 471 53 q 249 183 310 122 q 154 324 189 243 q 119 494 119 404 q 154 666 119 586 q 249 806 189 746 q 390 901 310 867 q 561 936 471 936 q 733 901 653 936 q 874 806 814 867 q 969 666 935 746 q 1004 494 1004 586 q 969 324 1004 404 q 874 183 935 243 q 733 88 814 122 q 561 53 653 53 z "},"Ó":{"ha":1117,"x_min":53,"x_max":1071,"o":"m 706 1189 l 674 1222 l 536 1083 l 567 1051 l 706 1189 m 561 -14 q 759 26 667 -14 q 921 135 851 67 q 1031 297 990 204 q 1071 494 1071 389 q 1031 692 1071 600 q 921 853 990 785 q 759 963 851 922 q 561 1003 667 1003 q 363 963 456 1003 q 202 853 271 922 q 93 692 133 785 q 53 494 53 600 q 93 297 53 389 q 202 135 133 204 q 363 26 271 67 q 561 -14 456 -14 m 561 53 q 390 88 471 53 q 249 183 310 122 q 154 324 189 243 q 119 494 119 404 q 154 666 119 586 q 249 806 189 746 q 390 901 310 867 q 561 936 471 936 q 733 901 653 936 q 874 806 814 867 q 969 666 935 746 q 1004 494 1004 586 q 969 324 1004 404 q 874 183 935 243 q 733 88 814 122 q 561 53 653 53 z "},"Ô":{"ha":1117,"x_min":53,"x_max":1071,"o":"m 549 1210 l 418 1079 l 443 1053 l 561 1171 l 679 1053 l 704 1081 l 574 1210 l 549 1210 m 561 -14 q 759 26 667 -14 q 921 135 851 67 q 1031 297 990 204 q 1071 494 1071 389 q 1031 692 1071 600 q 921 853 990 785 q 759 963 851 922 q 561 1003 667 1003 q 363 963 456 1003 q 202 853 271 922 q 93 692 133 785 q 53 494 53 600 q 93 297 53 389 q 202 135 133 204 q 363 26 271 67 q 561 -14 456 -14 m 561 53 q 390 88 471 53 q 249 183 310 122 q 154 324 189 243 q 119 494 119 404 q 154 666 119 586 q 249 806 189 746 q 390 901 310 867 q 561 936 471 936 q 733 901 653 936 q 874 806 814 867 q 969 666 935 746 q 1004 494 1004 586 q 969 324 1004 404 q 874 183 935 243 q 733 88 814 122 q 561 53 653 53 z "},"Õ":{"ha":1117,"x_min":53,"x_max":1071,"o":"m 333 1118 l 371 1088 q 403 1117 382 1101 q 468 1133 425 1133 q 512 1124 494 1133 q 544 1103 529 1115 q 585 1078 563 1090 q 646 1067 608 1067 q 692 1073 671 1067 q 728 1089 713 1079 q 756 1110 744 1099 q 778 1132 768 1122 l 739 1164 q 706 1136 725 1150 q 646 1122 686 1122 q 604 1133 622 1122 q 563 1160 586 1144 q 523 1180 546 1171 q 468 1189 500 1189 q 417 1181 439 1189 q 378 1163 394 1174 q 351 1140 361 1153 q 333 1118 340 1128 m 561 -14 q 759 26 667 -14 q 921 135 851 67 q 1031 297 990 204 q 1071 494 1071 389 q 1031 692 1071 600 q 921 853 990 785 q 759 963 851 922 q 561 1003 667 1003 q 363 963 456 1003 q 202 853 271 922 q 93 692 133 785 q 53 494 53 600 q 93 297 53 389 q 202 135 133 204 q 363 26 271 67 q 561 -14 456 -14 m 561 53 q 390 88 471 53 q 249 183 310 122 q 154 324 189 243 q 119 494 119 404 q 154 666 119 586 q 249 806 189 746 q 390 901 310 867 q 561 936 471 936 q 733 901 653 936 q 874 806 814 867 q 969 666 935 746 q 1004 494 1004 586 q 969 324 1004 404 q 874 183 935 243 q 733 88 814 122 q 561 53 653 53 z "},"Ö":{"ha":1113,"x_min":53,"x_max":1071,"o":"m 508 1107 q 496 1139 508 1126 q 464 1151 483 1151 q 432 1139 444 1151 q 419 1107 419 1126 q 432 1075 419 1088 q 464 1063 444 1063 q 496 1075 483 1063 q 508 1107 508 1088 m 700 1107 q 688 1139 700 1126 q 656 1151 675 1151 q 624 1139 636 1151 q 611 1107 611 1126 q 624 1075 611 1088 q 656 1063 636 1063 q 688 1075 675 1063 q 700 1107 700 1088 m 561 -14 q 759 26 667 -14 q 921 135 851 67 q 1031 297 990 204 q 1071 494 1071 389 q 1031 692 1071 600 q 921 853 990 785 q 759 963 851 922 q 561 1003 667 1003 q 363 963 456 1003 q 202 853 271 922 q 93 692 133 785 q 53 494 53 600 q 93 297 53 389 q 202 135 133 204 q 363 26 271 67 q 561 -14 456 -14 m 561 53 q 390 88 471 53 q 249 183 310 122 q 154 324 189 243 q 119 494 119 404 q 154 666 119 586 q 249 806 189 746 q 390 901 310 867 q 561 936 471 936 q 733 901 653 936 q 874 806 814 867 q 969 666 935 746 q 1004 494 1004 586 q 969 324 1004 404 q 874 183 935 243 q 733 88 814 122 q 561 53 653 53 z "},"×":{"ha":501,"x_min":44,"x_max":463,"o":"m 93 574 l 47 543 l 218 289 l 44 32 l 90 0 l 253 240 l 415 0 l 463 29 l 288 290 l 458 544 l 411 574 l 253 336 l 93 574 z "},"Ø":{"ha":1119,"x_min":53,"x_max":1071,"o":"m 290 146 q 165 299 211 208 q 119 494 119 389 q 154 666 119 586 q 249 806 189 746 q 390 901 310 867 q 561 936 471 936 q 684 919 625 936 q 793 869 743 901 l 290 146 m 843 833 q 961 685 918 772 q 1004 494 1004 597 q 969 324 1004 404 q 874 183 935 243 q 733 88 814 122 q 561 53 653 53 q 342 113 442 53 q 369 153 343 115 q 441 256 396 190 q 539 397 486 321 q 646 550 592 472 q 744 691 700 628 q 815 794 788 754 q 843 833 843 833 m 882 889 q 911 931 896 910 q 939 972 926 953 q 960 1002 951 990 q 968 1014 968 1014 l 893 1014 q 883 1000 893 1014 q 863 969 874 986 q 841 939 851 953 q 831 925 831 925 q 704 983 772 963 q 561 1003 636 1003 q 363 963 456 1003 q 202 853 271 922 q 93 692 133 785 q 53 494 53 600 q 106 266 53 371 q 251 90 160 161 l 169 -28 l 244 -28 l 303 57 q 426 4 361 22 q 561 -14 490 -14 q 759 26 667 -14 q 921 135 851 67 q 1031 297 990 204 q 1071 494 1071 389 q 1020 717 1071 615 q 882 889 969 818 z "},"Ù":{"ha":804,"x_min":29,"x_max":775,"o":"m 400 1051 l 431 1083 l 293 1222 l 261 1189 l 400 1051 m 268 935 l 268 992 l 29 992 l 29 935 l 115 935 l 115 253 q 140 137 115 186 q 206 55 165 88 q 298 6 246 22 q 403 -10 350 -10 q 507 6 456 -10 q 599 55 558 22 q 665 137 640 88 q 690 253 690 186 l 690 935 l 775 935 l 775 992 l 539 992 l 539 935 l 624 935 l 624 247 q 603 160 624 196 q 552 101 583 124 q 481 67 521 78 q 403 57 442 57 q 324 67 364 57 q 253 101 285 78 q 202 160 222 124 q 182 247 182 196 l 182 935 l 268 935 z "},"Ú":{"ha":804,"x_min":29,"x_max":775,"o":"m 547 1189 l 514 1222 l 376 1083 l 408 1051 l 547 1189 m 268 935 l 268 992 l 29 992 l 29 935 l 115 935 l 115 253 q 140 137 115 186 q 206 55 165 88 q 298 6 246 22 q 403 -10 350 -10 q 507 6 456 -10 q 599 55 558 22 q 665 137 640 88 q 690 253 690 186 l 690 935 l 775 935 l 775 992 l 539 992 l 539 935 l 624 935 l 624 247 q 603 160 624 196 q 552 101 583 124 q 481 67 521 78 q 403 57 442 57 q 324 67 364 57 q 253 101 285 78 q 202 160 222 124 q 182 247 182 196 l 182 935 l 268 935 z "},"Û":{"ha":804,"x_min":29,"x_max":775,"o":"m 392 1210 l 261 1079 l 286 1053 l 404 1171 l 522 1053 l 547 1081 l 417 1210 l 392 1210 m 268 935 l 268 992 l 29 992 l 29 935 l 115 935 l 115 253 q 140 137 115 186 q 206 55 165 88 q 298 6 246 22 q 403 -10 350 -10 q 507 6 456 -10 q 599 55 558 22 q 665 137 640 88 q 690 253 690 186 l 690 935 l 775 935 l 775 992 l 539 992 l 539 935 l 624 935 l 624 247 q 603 160 624 196 q 552 101 583 124 q 481 67 521 78 q 403 57 442 57 q 324 67 364 57 q 253 101 285 78 q 202 160 222 124 q 182 247 182 196 l 182 935 l 268 935 z "},"Ü":{"ha":804,"x_min":29,"x_max":775,"o":"m 349 1107 q 336 1139 349 1126 q 304 1151 324 1151 q 272 1139 285 1151 q 260 1107 260 1126 q 272 1075 260 1088 q 304 1063 285 1063 q 336 1075 324 1063 q 349 1107 349 1088 m 540 1107 q 528 1139 540 1126 q 496 1151 515 1151 q 464 1139 476 1151 q 451 1107 451 1126 q 464 1075 451 1088 q 496 1063 476 1063 q 528 1075 515 1063 q 540 1107 540 1088 m 268 935 l 268 992 l 29 992 l 29 935 l 115 935 l 115 253 q 140 137 115 186 q 206 55 165 88 q 298 6 246 22 q 403 -10 350 -10 q 507 6 456 -10 q 599 55 558 22 q 665 137 640 88 q 690 253 690 186 l 690 935 l 775 935 l 775 992 l 539 992 l 539 935 l 624 935 l 624 247 q 603 160 624 196 q 552 101 583 124 q 481 67 521 78 q 403 57 442 57 q 324 67 364 57 q 253 101 285 78 q 202 160 222 124 q 182 247 182 196 l 182 935 l 268 935 z "},"Ý":{"ha":790,"x_min":42,"x_max":753,"o":"m 250 992 l 42 992 l 42 933 l 118 933 l 363 503 l 363 58 l 285 58 l 285 0 l 507 0 l 507 58 l 429 58 l 429 503 l 674 933 l 753 933 l 753 992 l 543 992 l 543 933 l 607 933 l 396 557 l 185 933 l 250 933 l 250 992 m 557 1189 l 525 1222 l 388 1083 l 418 1051 l 557 1189 z "},"Þ":{"ha":674,"x_min":26,"x_max":639,"o":"m 639 517 q 621 626 639 576 q 568 710 603 675 q 483 766 533 746 q 369 786 433 786 l 185 786 l 185 933 l 276 933 l 276 992 l 26 992 l 26 933 l 118 933 l 118 58 l 26 58 l 26 0 l 276 0 l 276 58 l 185 58 l 185 249 l 369 249 q 567 320 494 249 q 639 517 639 392 m 572 517 q 516 358 572 410 q 369 307 460 307 l 185 307 l 185 728 l 369 728 q 516 672 460 728 q 572 517 572 617 z "},"ß":{"ha":743,"x_min":31,"x_max":701,"o":"m 340 992 q 249 976 290 992 q 176 930 207 961 q 127 853 144 899 q 110 746 110 807 l 110 574 l 31 574 l 31 517 l 110 517 l 110 0 l 165 0 l 165 744 q 215 892 165 849 q 340 935 264 935 q 409 922 376 935 q 466 888 442 910 q 505 834 490 865 q 519 767 519 803 q 505 690 519 725 q 467 628 490 654 q 412 588 443 603 q 347 574 381 574 l 347 518 q 465 506 410 518 q 559 468 519 494 q 622 398 599 442 q 644 292 644 354 q 630 203 644 246 q 588 128 615 161 q 522 76 561 96 q 433 57 483 57 l 275 57 l 275 0 l 432 0 q 546 22 496 0 q 631 84 596 44 q 683 176 665 124 q 701 292 701 229 q 678 408 701 360 q 620 489 656 457 q 544 538 585 521 q 465 561 503 556 q 545 640 514 593 q 576 767 576 686 q 558 856 576 814 q 506 927 539 897 q 431 974 474 957 q 340 992 388 992 z "},"à":{"ha":786,"x_min":61,"x_max":758,"o":"m 397 838 l 436 878 l 264 1051 l 222 1011 l 397 838 m 379 675 q 459 663 419 675 q 530 625 499 650 q 581 562 561 600 q 600 472 600 524 l 600 393 q 561 436 585 415 q 506 474 538 457 q 435 500 475 490 q 346 510 396 510 q 226 488 279 510 q 136 431 172 467 q 81 347 100 394 q 61 249 61 300 q 79 151 61 199 q 133 67 97 104 q 221 8 168 31 q 343 -14 274 -14 q 442 -3 400 -14 q 515 25 485 8 q 566 61 546 42 q 600 97 586 81 l 600 0 l 758 0 l 758 50 l 656 50 l 656 485 q 634 589 656 543 q 576 667 613 635 q 488 715 539 699 q 379 732 438 732 q 249 710 313 732 q 143 646 185 688 l 176 600 q 263 653 208 632 q 379 675 317 675 m 118 249 q 132 323 118 286 q 174 389 146 360 q 246 436 203 418 q 346 454 289 454 q 453 437 407 454 q 528 390 499 419 q 574 324 558 361 q 589 249 589 288 q 574 173 589 210 q 528 107 558 136 q 453 60 499 78 q 346 43 407 43 q 247 60 289 43 q 176 107 204 78 q 133 173 147 136 q 118 249 118 210 z "},"á":{"ha":786,"x_min":61,"x_max":758,"o":"m 546 1011 l 504 1051 l 332 878 l 371 838 l 546 1011 m 379 675 q 459 663 419 675 q 530 625 499 650 q 581 562 561 600 q 600 472 600 524 l 600 393 q 561 436 585 415 q 506 474 538 457 q 435 500 475 490 q 346 510 396 510 q 226 488 279 510 q 136 431 172 467 q 81 347 100 394 q 61 249 61 300 q 79 151 61 199 q 133 67 97 104 q 221 8 168 31 q 343 -14 274 -14 q 442 -3 400 -14 q 515 25 485 8 q 566 61 546 42 q 600 97 586 81 l 600 0 l 758 0 l 758 50 l 656 50 l 656 485 q 634 589 656 543 q 576 667 613 635 q 488 715 539 699 q 379 732 438 732 q 249 710 313 732 q 143 646 185 688 l 176 600 q 263 653 208 632 q 379 675 317 675 m 118 249 q 132 323 118 286 q 174 389 146 360 q 246 436 203 418 q 346 454 289 454 q 453 437 407 454 q 528 390 499 419 q 574 324 558 361 q 589 249 589 288 q 574 173 589 210 q 528 107 558 136 q 453 60 499 78 q 346 43 407 43 q 247 60 289 43 q 176 107 204 78 q 133 173 147 136 q 118 249 118 210 z "},"â":{"ha":786,"x_min":61,"x_max":758,"o":"m 371 1021 l 208 856 l 240 825 l 389 971 l 535 825 l 565 857 l 404 1021 l 371 1021 m 379 675 q 459 663 419 675 q 530 625 499 650 q 581 562 561 600 q 600 472 600 524 l 600 393 q 561 436 585 415 q 506 474 538 457 q 435 500 475 490 q 346 510 396 510 q 226 488 279 510 q 136 431 172 467 q 81 347 100 394 q 61 249 61 300 q 79 151 61 199 q 133 67 97 104 q 221 8 168 31 q 343 -14 274 -14 q 442 -3 400 -14 q 515 25 485 8 q 566 61 546 42 q 600 97 586 81 l 600 0 l 758 0 l 758 50 l 656 50 l 656 485 q 634 589 656 543 q 576 667 613 635 q 488 715 539 699 q 379 732 438 732 q 249 710 313 732 q 143 646 185 688 l 176 600 q 263 653 208 632 q 379 675 317 675 m 118 249 q 132 323 118 286 q 174 389 146 360 q 246 436 203 418 q 346 454 289 454 q 453 437 407 454 q 528 390 499 419 q 574 324 558 361 q 589 249 589 288 q 574 173 589 210 q 528 107 558 136 q 453 60 499 78 q 346 43 407 43 q 247 60 289 43 q 176 107 204 78 q 133 173 147 136 q 118 249 118 210 z "},"ã":{"ha":786,"x_min":61,"x_max":758,"o":"m 171 881 l 210 849 q 242 879 221 863 q 306 896 264 896 q 350 887 333 896 q 383 864 367 878 q 424 840 401 851 q 485 829 446 829 q 567 851 536 829 q 617 894 597 874 l 576 925 q 544 899 564 913 q 485 885 525 885 q 442 896 461 885 q 401 921 424 907 q 360 942 383 932 q 306 951 338 951 q 254 944 276 951 q 216 926 232 936 q 189 903 200 915 q 171 881 178 890 m 379 675 q 459 663 419 675 q 530 625 499 650 q 581 562 561 600 q 600 472 600 524 l 600 393 q 561 436 585 415 q 506 474 538 457 q 435 500 475 490 q 346 510 396 510 q 226 488 279 510 q 136 431 172 467 q 81 347 100 394 q 61 249 61 300 q 79 151 61 199 q 133 67 97 104 q 221 8 168 31 q 343 -14 274 -14 q 442 -3 400 -14 q 515 25 485 8 q 566 61 546 42 q 600 97 586 81 l 600 0 l 758 0 l 758 50 l 656 50 l 656 485 q 634 589 656 543 q 576 667 613 635 q 488 715 539 699 q 379 732 438 732 q 249 710 313 732 q 143 646 185 688 l 176 600 q 263 653 208 632 q 379 675 317 675 m 118 249 q 132 323 118 286 q 174 389 146 360 q 246 436 203 418 q 346 454 289 454 q 453 437 407 454 q 528 390 499 419 q 574 324 558 361 q 589 249 589 288 q 574 173 589 210 q 528 107 558 136 q 453 60 499 78 q 346 43 407 43 q 247 60 289 43 q 176 107 204 78 q 133 173 147 136 q 118 249 118 210 z "},"ä":{"ha":786,"x_min":61,"x_max":758,"o":"m 331 915 q 318 947 331 935 q 286 960 306 960 q 254 947 267 960 q 242 915 242 935 q 254 883 242 896 q 286 871 267 871 q 318 883 306 871 q 331 915 331 896 m 522 915 q 510 947 522 935 q 478 960 497 960 q 446 947 458 960 q 433 915 433 935 q 446 883 433 896 q 478 871 458 871 q 510 883 497 871 q 522 915 522 896 m 379 675 q 459 663 419 675 q 530 625 499 650 q 581 562 561 600 q 600 472 600 524 l 600 393 q 561 436 585 415 q 506 474 538 457 q 435 500 475 490 q 346 510 396 510 q 226 488 279 510 q 136 431 172 467 q 81 347 100 394 q 61 249 61 300 q 79 151 61 199 q 133 67 97 104 q 221 8 168 31 q 343 -14 274 -14 q 442 -3 400 -14 q 515 25 485 8 q 566 61 546 42 q 600 97 586 81 l 600 0 l 758 0 l 758 50 l 656 50 l 656 485 q 634 589 656 543 q 576 667 613 635 q 488 715 539 699 q 379 732 438 732 q 249 710 313 732 q 143 646 185 688 l 176 600 q 263 653 208 632 q 379 675 317 675 m 118 249 q 132 323 118 286 q 174 389 146 360 q 246 436 203 418 q 346 454 289 454 q 453 437 407 454 q 528 390 499 419 q 574 324 558 361 q 589 249 589 288 q 574 173 589 210 q 528 107 558 136 q 453 60 499 78 q 346 43 407 43 q 247 60 289 43 q 176 107 204 78 q 133 173 147 136 q 118 249 118 210 z "},"å":{"ha":786,"x_min":61,"x_max":758,"o":"m 499 926 q 465 1007 499 974 q 385 1040 432 1040 q 304 1007 338 1040 q 271 926 271 974 q 304 846 271 879 q 385 813 338 813 q 465 846 432 813 q 499 926 499 879 m 299 926 q 324 988 299 963 q 385 1013 349 1013 q 446 988 421 1013 q 471 926 471 963 q 446 865 471 890 q 385 840 421 840 q 324 865 349 840 q 299 926 299 890 m 379 675 q 459 663 419 675 q 530 625 499 650 q 581 562 561 600 q 600 472 600 524 l 600 393 q 561 436 585 415 q 506 474 538 457 q 435 500 475 490 q 346 510 396 510 q 226 488 279 510 q 136 431 172 467 q 81 347 100 394 q 61 249 61 300 q 79 151 61 199 q 133 67 97 104 q 221 8 168 31 q 343 -14 274 -14 q 442 -3 400 -14 q 515 25 485 8 q 566 61 546 42 q 600 97 586 81 l 600 0 l 758 0 l 758 50 l 656 50 l 656 485 q 634 589 656 543 q 576 667 613 635 q 488 715 539 699 q 379 732 438 732 q 249 710 313 732 q 143 646 185 688 l 176 600 q 263 653 208 632 q 379 675 317 675 m 118 249 q 132 323 118 286 q 174 389 146 360 q 246 436 203 418 q 346 454 289 454 q 453 437 407 454 q 528 390 499 419 q 574 324 558 361 q 589 249 589 288 q 574 173 589 210 q 528 107 558 136 q 453 60 499 78 q 346 43 407 43 q 247 60 289 43 q 176 107 204 78 q 133 173 147 136 q 118 249 118 210 z "},"æ":{"ha":1318,"x_min":61,"x_max":1256,"o":"m 118 249 q 132 323 118 286 q 174 389 146 360 q 246 436 203 418 q 346 454 289 454 q 453 437 407 454 q 528 390 499 419 q 574 324 558 361 q 589 249 589 288 q 574 173 589 210 q 528 107 558 136 q 453 60 499 78 q 346 43 407 43 q 247 60 289 43 q 176 107 204 78 q 133 173 147 136 q 118 249 118 210 m 1188 408 l 658 408 q 679 502 660 454 q 732 589 699 550 q 813 653 765 628 q 918 678 860 678 q 1026 653 978 678 q 1110 588 1075 628 q 1165 501 1144 549 q 1188 408 1185 454 m 1256 394 q 1232 517 1256 457 q 1164 626 1208 578 q 1057 705 1119 675 q 918 735 994 735 q 757 691 828 735 q 642 574 686 647 q 543 690 614 649 q 379 732 472 732 q 249 710 313 732 q 143 646 185 688 l 176 600 q 263 653 208 632 q 379 675 317 675 q 459 663 419 675 q 530 625 499 650 q 581 562 561 600 q 600 472 600 524 l 600 393 q 505 476 565 443 q 343 510 444 510 q 222 488 274 510 q 133 428 169 465 q 79 344 97 392 q 61 249 61 297 q 79 151 61 199 q 133 67 97 104 q 221 8 168 31 q 343 -14 274 -14 q 442 -3 400 -14 q 515 25 485 8 q 566 61 546 42 q 600 97 586 81 l 600 0 l 656 0 l 656 113 q 763 17 699 53 q 918 -19 828 -19 q 1035 -5 985 -19 q 1121 33 1085 10 q 1182 87 1157 57 q 1226 147 1207 117 l 1178 179 q 1138 128 1160 153 q 1086 83 1117 103 q 1015 50 1056 63 q 917 38 974 38 q 807 65 856 38 q 724 136 758 92 q 672 237 690 181 q 654 351 654 293 l 1254 351 q 1256 371 1256 361 q 1256 394 1256 381 z "},"ç":{"ha":668,"x_min":40,"x_max":610,"o":"m 418 -78 l 436 -21 q 532 -1 486 -18 q 610 44 578 15 l 610 118 q 575 88 593 103 q 533 62 557 74 q 477 43 508 50 q 404 36 446 36 q 270 63 328 36 q 174 133 213 89 q 115 235 135 176 q 96 356 96 293 q 115 477 96 419 q 174 579 135 535 q 270 650 213 624 q 404 676 328 676 q 485 669 447 676 q 560 643 524 663 l 560 578 l 610 578 l 610 744 l 560 744 l 560 708 q 479 728 519 724 q 404 733 439 733 q 249 702 317 733 q 134 619 181 671 q 64 499 88 567 q 40 356 40 431 q 61 218 40 283 q 124 101 82 153 q 229 17 167 50 q 375 -21 292 -15 l 349 -94 q 394 -109 375 -94 q 413 -142 413 -124 q 402 -170 413 -158 q 374 -182 392 -182 q 332 -171 350 -182 q 300 -144 314 -160 l 300 -200 q 335 -226 315 -215 q 378 -237 356 -237 q 446 -213 418 -237 q 474 -147 474 -189 q 455 -102 474 -119 q 418 -78 436 -85 z "},"è":{"ha":782,"x_min":54,"x_max":725,"o":"m 408 838 l 447 878 l 275 1051 l 233 1011 l 408 838 m 389 38 q 276 62 326 38 q 191 128 226 86 q 137 227 156 169 q 118 351 118 285 l 724 351 q 725 371 725 361 q 725 394 725 381 q 702 517 725 457 q 635 626 679 578 q 530 705 592 675 q 389 735 468 735 q 253 706 315 735 q 147 626 192 676 q 78 506 103 575 q 54 358 54 438 q 75 218 54 286 q 138 97 96 150 q 242 13 179 44 q 389 -19 304 -19 q 505 -5 456 -19 q 590 33 554 10 q 651 87 626 57 q 696 147 676 117 l 647 179 q 610 127 631 153 q 559 82 589 101 q 488 50 529 63 q 389 38 446 38 m 663 401 l 124 401 q 144 505 125 456 q 197 593 163 554 q 279 655 231 632 q 389 678 328 678 q 499 656 450 678 q 584 596 549 633 q 640 508 619 558 q 663 401 660 457 z "},"é":{"ha":782,"x_min":54,"x_max":725,"o":"m 529 1011 l 488 1051 l 315 878 l 354 838 l 529 1011 m 389 38 q 276 62 326 38 q 191 128 226 86 q 137 227 156 169 q 118 351 118 285 l 724 351 q 725 371 725 361 q 725 394 725 381 q 702 517 725 457 q 635 626 679 578 q 530 705 592 675 q 389 735 468 735 q 253 706 315 735 q 147 626 192 676 q 78 506 103 575 q 54 358 54 438 q 75 218 54 286 q 138 97 96 150 q 242 13 179 44 q 389 -19 304 -19 q 505 -5 456 -19 q 590 33 554 10 q 651 87 626 57 q 696 147 676 117 l 647 179 q 610 127 631 153 q 559 82 589 101 q 488 50 529 63 q 389 38 446 38 m 663 401 l 124 401 q 144 505 125 456 q 197 593 163 554 q 279 655 231 632 q 389 678 328 678 q 499 656 450 678 q 584 596 549 633 q 640 508 619 558 q 663 401 660 457 z "},"ê":{"ha":782,"x_min":54,"x_max":725,"o":"m 374 1021 l 211 856 l 244 825 l 392 971 l 538 825 l 568 857 l 407 1021 l 374 1021 m 389 38 q 276 62 326 38 q 191 128 226 86 q 137 227 156 169 q 118 351 118 285 l 724 351 q 725 371 725 361 q 725 394 725 381 q 702 517 725 457 q 635 626 679 578 q 530 705 592 675 q 389 735 468 735 q 253 706 315 735 q 147 626 192 676 q 78 506 103 575 q 54 358 54 438 q 75 218 54 286 q 138 97 96 150 q 242 13 179 44 q 389 -19 304 -19 q 505 -5 456 -19 q 590 33 554 10 q 651 87 626 57 q 696 147 676 117 l 647 179 q 610 127 631 153 q 559 82 589 101 q 488 50 529 63 q 389 38 446 38 m 663 401 l 124 401 q 144 505 125 456 q 197 593 163 554 q 279 655 231 632 q 389 678 328 678 q 499 656 450 678 q 584 596 549 633 q 640 508 619 558 q 663 401 660 457 z "},"ë":{"ha":782,"x_min":54,"x_max":725,"o":"m 333 915 q 321 947 333 935 q 289 960 308 960 q 257 947 269 960 q 244 915 244 935 q 257 883 244 896 q 289 871 269 871 q 321 883 308 871 q 333 915 333 896 m 525 915 q 513 947 525 935 q 481 960 500 960 q 449 947 461 960 q 436 915 436 935 q 449 883 436 896 q 481 871 461 871 q 513 883 500 871 q 525 915 525 896 m 389 38 q 276 62 326 38 q 191 128 226 86 q 137 227 156 169 q 118 351 118 285 l 724 351 q 725 371 725 361 q 725 394 725 381 q 702 517 725 457 q 635 626 679 578 q 530 705 592 675 q 389 735 468 735 q 253 706 315 735 q 147 626 192 676 q 78 506 103 575 q 54 358 54 438 q 75 218 54 286 q 138 97 96 150 q 242 13 179 44 q 389 -19 304 -19 q 505 -5 456 -19 q 590 33 554 10 q 651 87 626 57 q 696 147 676 117 l 647 179 q 610 127 631 153 q 559 82 589 101 q 488 50 529 63 q 389 38 446 38 m 663 401 l 124 401 q 144 505 125 456 q 197 593 163 554 q 279 655 231 632 q 389 678 328 678 q 499 656 450 678 q 584 596 549 633 q 640 508 619 558 q 663 401 660 457 z "},"ì":{"ha":354,"x_min":-26,"x_max":306,"o":"m 147 838 l 188 878 l 14 1051 l -26 1011 l 147 838 m 221 715 l 79 715 l 79 658 l 164 658 l 164 57 l 79 57 l 79 0 l 306 0 l 306 57 l 221 57 l 221 715 z "},"í":{"ha":354,"x_min":79,"x_max":321,"o":"m 321 1011 l 279 1051 l 107 878 l 146 838 l 321 1011 m 221 715 l 79 715 l 79 658 l 164 658 l 164 57 l 79 57 l 79 0 l 306 0 l 306 57 l 221 57 l 221 715 z "},"î":{"ha":354,"x_min":-8,"x_max":349,"o":"m 154 1021 l -8 856 l 24 825 l 171 971 l 318 825 l 349 857 l 188 1021 l 154 1021 m 214 715 l 72 715 l 72 658 l 157 658 l 157 57 l 72 57 l 72 0 l 299 0 l 299 57 l 214 57 l 214 715 z "},"ï":{"ha":354,"x_min":38,"x_max":318,"o":"m 214 715 l 72 715 l 72 658 l 157 658 l 157 57 l 72 57 l 72 0 l 299 0 l 299 57 l 214 57 l 214 715 m 126 915 q 114 947 126 935 q 82 960 101 960 q 50 947 63 960 q 38 915 38 935 q 50 883 38 896 q 82 871 63 871 q 114 883 101 871 q 126 915 126 896 m 318 915 q 306 947 318 935 q 274 960 293 960 q 242 947 254 960 q 229 915 229 935 q 242 883 229 896 q 274 871 254 871 q 306 883 293 871 q 318 915 318 896 z "},"ð":{"ha":692,"x_min":49,"x_max":640,"o":"m 104 286 q 123 380 104 336 q 174 456 142 424 q 251 508 207 489 q 344 526 294 526 q 438 508 394 526 q 515 456 482 489 q 566 380 547 424 q 585 286 585 336 q 566 192 585 236 q 515 116 547 149 q 438 65 482 83 q 344 46 394 46 q 251 65 294 46 q 174 116 207 83 q 123 192 142 149 q 104 286 104 236 m 560 489 q 464 558 519 533 q 344 582 408 582 q 229 559 283 582 q 135 496 175 536 q 72 401 94 456 q 49 286 49 347 q 72 171 49 225 q 135 76 94 117 q 229 13 175 36 q 344 -10 283 -10 q 460 13 406 -10 q 554 76 514 36 q 617 171 594 117 q 640 286 640 225 q 627 470 640 392 q 589 609 614 549 q 527 715 564 669 q 443 801 490 761 l 569 881 l 514 917 l 392 840 q 246 911 322 888 l 196 863 q 329 801 265 839 l 208 725 l 264 689 l 383 764 q 435 719 408 744 q 485 659 461 693 q 529 583 510 625 q 560 489 549 540 z "},"ñ":{"ha":751,"x_min":64,"x_max":738,"o":"m 167 881 l 206 849 q 238 879 217 863 q 301 896 260 896 q 346 887 329 896 q 378 864 363 878 q 419 840 397 851 q 481 829 442 829 q 563 851 532 829 q 613 894 593 874 l 572 925 q 540 899 560 913 q 481 885 521 885 q 438 896 457 885 q 397 921 419 907 q 356 942 379 932 q 301 951 333 951 q 250 944 272 951 q 212 926 228 936 q 185 903 196 915 q 167 881 174 890 m 64 0 l 290 0 l 290 50 l 206 50 l 206 526 q 218 567 206 542 q 255 618 231 593 q 315 661 279 643 q 400 679 351 679 q 476 669 440 679 q 538 634 511 658 q 579 572 564 610 q 594 481 594 535 l 594 50 l 508 50 l 508 0 l 738 0 l 738 50 l 650 50 l 650 503 q 630 605 650 561 q 576 678 610 649 q 496 722 542 707 q 400 736 450 736 q 327 727 358 736 q 272 704 296 718 q 232 674 249 690 q 206 643 215 657 l 206 715 l 64 715 l 64 667 l 149 667 l 149 50 l 64 50 l 64 0 z "},"ò":{"ha":778,"x_min":50,"x_max":731,"o":"m 418 838 l 458 878 l 285 1051 l 244 1011 l 418 838 m 731 360 q 708 499 731 431 q 642 619 686 567 q 535 704 599 672 q 390 736 472 736 q 244 704 308 736 q 138 619 181 672 q 72 499 94 567 q 50 360 50 431 q 72 221 50 289 q 138 101 94 153 q 244 17 181 49 q 390 -15 308 -15 q 535 17 472 -15 q 642 101 599 49 q 708 221 686 153 q 731 360 731 289 m 674 360 q 656 243 674 300 q 602 141 638 186 q 514 69 567 96 q 390 42 461 42 q 266 69 319 42 q 177 141 213 96 q 124 243 142 186 q 107 360 107 300 q 124 476 107 419 q 177 578 142 533 q 266 651 213 624 q 390 679 319 679 q 514 651 461 679 q 602 578 567 624 q 656 476 638 533 q 674 360 674 419 z "},"ó":{"ha":778,"x_min":50,"x_max":731,"o":"m 532 1011 l 490 1051 l 318 878 l 357 838 l 532 1011 m 731 360 q 708 499 731 431 q 642 619 686 567 q 535 704 599 672 q 390 736 472 736 q 244 704 308 736 q 138 619 181 672 q 72 499 94 567 q 50 360 50 431 q 72 221 50 289 q 138 101 94 153 q 244 17 181 49 q 390 -15 308 -15 q 535 17 472 -15 q 642 101 599 49 q 708 221 686 153 q 731 360 731 289 m 674 360 q 656 243 674 300 q 602 141 638 186 q 514 69 567 96 q 390 42 461 42 q 266 69 319 42 q 177 141 213 96 q 124 243 142 186 q 107 360 107 300 q 124 476 107 419 q 177 578 142 533 q 266 651 213 624 q 390 679 319 679 q 514 651 461 679 q 602 578 567 624 q 656 476 638 533 q 674 360 674 419 z "},"ô":{"ha":778,"x_min":50,"x_max":731,"o":"m 372 1021 l 210 856 l 242 825 l 390 971 l 536 825 l 567 857 l 406 1021 l 372 1021 m 731 360 q 708 499 731 431 q 642 619 686 567 q 535 704 599 672 q 390 736 472 736 q 244 704 308 736 q 138 619 181 672 q 72 499 94 567 q 50 360 50 431 q 72 221 50 289 q 138 101 94 153 q 244 17 181 49 q 390 -15 308 -15 q 535 17 472 -15 q 642 101 599 49 q 708 221 686 153 q 731 360 731 289 m 674 360 q 656 243 674 300 q 602 141 638 186 q 514 69 567 96 q 390 42 461 42 q 266 69 319 42 q 177 141 213 96 q 124 243 142 186 q 107 360 107 300 q 124 476 107 419 q 177 578 142 533 q 266 651 213 624 q 390 679 319 679 q 514 651 461 679 q 602 578 567 624 q 656 476 638 533 q 674 360 674 419 z "},"õ":{"ha":778,"x_min":50,"x_max":731,"o":"m 167 881 l 206 849 q 238 879 217 863 q 301 896 260 896 q 346 887 329 896 q 378 864 363 878 q 419 840 397 851 q 481 829 442 829 q 563 851 532 829 q 613 894 593 874 l 572 925 q 540 899 560 913 q 481 885 521 885 q 438 896 457 885 q 397 921 419 907 q 356 942 379 932 q 301 951 333 951 q 250 944 272 951 q 212 926 228 936 q 185 903 196 915 q 167 881 174 890 m 731 360 q 708 499 731 431 q 642 619 686 567 q 535 704 599 672 q 390 736 472 736 q 244 704 308 736 q 138 619 181 672 q 72 499 94 567 q 50 360 50 431 q 72 221 50 289 q 138 101 94 153 q 244 17 181 49 q 390 -15 308 -15 q 535 17 472 -15 q 642 101 599 49 q 708 221 686 153 q 731 360 731 289 m 674 360 q 656 243 674 300 q 602 141 638 186 q 514 69 567 96 q 390 42 461 42 q 266 69 319 42 q 177 141 213 96 q 124 243 142 186 q 107 360 107 300 q 124 476 107 419 q 177 578 142 533 q 266 651 213 624 q 390 679 319 679 q 514 651 461 679 q 602 578 567 624 q 656 476 638 533 q 674 360 674 419 z "},"ö":{"ha":778,"x_min":50,"x_max":731,"o":"m 339 915 q 326 947 339 935 q 294 960 314 960 q 263 947 275 960 q 250 915 250 935 q 263 883 250 896 q 294 871 275 871 q 326 883 314 871 q 339 915 339 896 m 531 915 q 518 947 531 935 q 486 960 506 960 q 454 947 467 960 q 442 915 442 935 q 454 883 442 896 q 486 871 467 871 q 518 883 506 871 q 531 915 531 896 m 731 360 q 708 499 731 431 q 642 619 686 567 q 535 704 599 672 q 390 736 472 736 q 244 704 308 736 q 138 619 181 672 q 72 499 94 567 q 50 360 50 431 q 72 221 50 289 q 138 101 94 153 q 244 17 181 49 q 390 -15 308 -15 q 535 17 472 -15 q 642 101 599 49 q 708 221 686 153 q 731 360 731 289 m 674 360 q 656 243 674 300 q 602 141 638 186 q 514 69 567 96 q 390 42 461 42 q 266 69 319 42 q 177 141 213 96 q 124 243 142 186 q 107 360 107 300 q 124 476 107 419 q 177 578 142 533 q 266 651 213 624 q 390 679 319 679 q 514 651 461 679 q 602 578 567 624 q 656 476 638 533 q 674 360 674 419 z "},"÷":{"ha":503,"x_min":81,"x_max":438,"o":"m 438 544 l 81 544 l 81 488 l 438 488 l 438 544 m 306 349 q 291 384 306 369 q 256 399 276 399 q 220 384 235 399 q 206 349 206 369 q 220 313 206 328 q 256 299 235 299 q 291 313 276 299 q 306 349 306 328 m 306 674 q 291 709 306 694 q 256 724 276 724 q 220 709 235 724 q 206 674 206 694 q 220 638 206 653 q 256 624 235 624 q 291 638 276 624 q 306 674 306 653 z "},"ø":{"ha":778,"x_min":50,"x_max":729,"o":"m 50 360 q 60 263 50 310 q 91 176 71 217 q 138 102 111 136 q 199 46 165 68 l 153 -31 l 214 -31 l 242 18 q 316 -8 281 0 q 390 -15 351 -15 q 535 17 472 -15 q 642 101 599 49 q 707 221 685 153 q 729 360 729 289 q 698 524 729 447 q 610 653 667 601 l 675 764 l 614 764 l 568 686 q 482 723 525 710 q 390 736 439 736 q 244 704 308 736 q 138 619 181 672 q 72 499 94 567 q 50 360 50 431 m 390 42 q 271 67 322 42 l 581 604 q 651 491 628 556 q 674 360 674 426 q 656 243 674 300 q 602 141 638 186 q 514 69 567 96 q 390 42 461 42 m 390 679 q 540 636 481 679 l 226 93 q 174 143 197 114 q 137 207 151 172 q 115 281 122 242 q 107 360 107 319 q 124 476 107 419 q 177 578 142 533 q 266 651 213 624 q 390 679 319 679 z "},"ù":{"ha":801,"x_min":58,"x_max":729,"o":"m 392 838 l 431 878 l 258 1051 l 217 1011 l 392 838 m 644 715 l 503 715 l 503 667 l 588 667 l 588 185 q 576 151 588 175 q 540 103 564 128 q 479 59 515 78 q 394 40 443 40 q 253 83 306 40 q 200 235 200 126 l 200 715 l 58 715 l 58 667 l 143 667 l 143 222 q 208 44 143 106 q 394 -17 272 -17 q 464 -8 433 -17 q 517 13 494 0 q 558 42 540 25 q 588 75 575 58 l 588 0 l 729 0 l 729 50 l 644 50 l 644 715 z "},"ú":{"ha":801,"x_min":58,"x_max":729,"o":"m 542 1011 l 500 1051 l 328 878 l 367 838 l 542 1011 m 644 715 l 503 715 l 503 667 l 588 667 l 588 185 q 576 151 588 175 q 540 103 564 128 q 479 59 515 78 q 394 40 443 40 q 253 83 306 40 q 200 235 200 126 l 200 715 l 58 715 l 58 667 l 143 667 l 143 222 q 208 44 143 106 q 394 -17 272 -17 q 464 -8 433 -17 q 517 13 494 0 q 558 42 540 25 q 588 75 575 58 l 588 0 l 729 0 l 729 50 l 644 50 l 644 715 z "},"û":{"ha":801,"x_min":58,"x_max":729,"o":"m 363 1021 l 200 856 l 232 825 l 379 971 l 526 825 l 557 857 l 396 1021 l 363 1021 m 644 715 l 503 715 l 503 667 l 588 667 l 588 185 q 576 151 588 175 q 540 103 564 128 q 479 59 515 78 q 394 40 443 40 q 253 83 306 40 q 200 235 200 126 l 200 715 l 58 715 l 58 667 l 143 667 l 143 222 q 208 44 143 106 q 394 -17 272 -17 q 464 -8 433 -17 q 517 13 494 0 q 558 42 540 25 q 588 75 575 58 l 588 0 l 729 0 l 729 50 l 644 50 l 644 715 z "},"ü":{"ha":801,"x_min":58,"x_max":729,"o":"m 333 915 q 321 947 333 935 q 289 960 308 960 q 257 947 269 960 q 244 915 244 935 q 257 883 244 896 q 289 871 269 871 q 321 883 308 871 q 333 915 333 896 m 525 915 q 513 947 525 935 q 481 960 500 960 q 449 947 461 960 q 436 915 436 935 q 449 883 436 896 q 481 871 461 871 q 513 883 500 871 q 525 915 525 896 m 644 715 l 503 715 l 503 667 l 588 667 l 588 185 q 576 151 588 175 q 540 103 564 128 q 479 59 515 78 q 394 40 443 40 q 253 83 306 40 q 200 235 200 126 l 200 715 l 58 715 l 58 667 l 143 667 l 143 222 q 208 44 143 106 q 394 -17 272 -17 q 464 -8 433 -17 q 517 13 494 0 q 558 42 540 25 q 588 75 575 58 l 588 0 l 729 0 l 729 50 l 644 50 l 644 715 z "},"ý":{"ha":785,"x_min":47,"x_max":739,"o":"m 288 667 l 288 715 l 47 715 l 47 667 l 135 667 l 372 81 l 250 -232 l 158 -232 l 158 -282 l 397 -282 l 397 -232 l 308 -232 l 665 667 l 739 667 l 739 715 l 525 715 l 525 667 l 606 667 l 406 157 l 199 667 l 288 667 m 592 1011 l 551 1051 l 378 878 l 418 838 l 592 1011 z "},"þ":{"ha":807,"x_min":39,"x_max":764,"o":"m 181 576 l 181 992 l 265 992 l 265 1042 l 39 1042 l 39 992 l 124 992 l 124 -200 l 39 -200 l 39 -250 l 265 -250 l 265 -200 l 181 -200 l 181 139 q 217 85 194 113 q 271 35 239 57 q 346 -1 303 13 q 444 -15 389 -15 q 586 17 526 -15 q 685 101 646 49 q 744 222 725 154 q 764 361 764 289 q 744 499 764 432 q 685 619 725 567 q 586 704 646 672 q 444 736 526 736 q 347 722 390 736 q 272 685 304 708 q 217 634 239 663 q 181 576 194 606 m 707 361 q 691 244 707 301 q 642 142 675 186 q 560 69 610 97 q 444 42 511 42 q 330 69 379 42 q 247 142 281 97 q 197 244 214 186 q 181 361 181 301 q 196 478 181 421 q 243 581 211 536 q 324 652 275 625 q 439 679 372 679 q 554 652 504 679 q 638 581 604 625 q 690 478 672 536 q 707 361 707 421 z "},"ÿ":{"ha":785,"x_min":47,"x_max":739,"o":"m 353 915 q 340 947 353 935 q 308 960 328 960 q 276 947 289 960 q 264 915 264 935 q 276 883 264 896 q 308 871 289 871 q 340 883 328 871 q 353 915 353 896 m 544 915 q 532 947 544 935 q 500 960 519 960 q 468 947 481 960 q 456 915 456 935 q 468 883 456 896 q 500 871 481 871 q 532 883 519 871 q 544 915 544 896 m 288 667 l 288 715 l 47 715 l 47 667 l 135 667 l 372 81 l 250 -232 l 158 -232 l 158 -282 l 397 -282 l 397 -232 l 308 -232 l 665 667 l 739 667 l 739 715 l 525 715 l 525 667 l 606 667 l 406 157 l 199 667 l 288 667 z "},"":{"ha":0,"x_min":0,"x_max":0,"o":""},"":{"ha":0,"x_min":0,"x_max":0,"o":""},"":{"ha":0,"x_min":0,"x_max":0,"o":""},"":{"ha":542,"x_min":72,"x_max":489,"o":"m 489 544 l 72 544 l 72 488 l 489 488 l 489 544 z "},"":{"ha":482,"x_min":93,"x_max":408,"o":"m 93 572 l 246 572 l 211 460 l 93 460 l 93 403 l 196 403 l 163 296 l 218 296 l 251 403 l 408 403 l 408 460 l 268 460 l 300 572 l 408 572 l 408 629 l 318 629 l 344 722 l 289 722 l 263 629 l 93 629 l 93 572 z "},"":{"ha":439,"x_min":61,"x_max":401,"o":"m 401 293 l 61 293 l 61 236 l 401 236 l 401 293 m 357 753 l 79 535 l 353 319 l 386 353 l 154 535 l 390 718 l 357 753 z "},"":{"ha":408,"x_min":38,"x_max":376,"o":"m 38 236 l 376 236 l 376 293 l 38 293 l 38 236 m 53 353 l 85 319 l 358 535 l 81 753 l 49 718 l 283 535 l 53 353 z "},"":{"ha":383,"x_min":31,"x_max":354,"o":"m 354 543 l 31 543 l 31 515 l 354 515 l 354 543 m 215 1046 l 153 1046 l 153 1022 l 190 1022 l 190 622 l 153 622 l 153 600 l 254 600 l 254 622 l 215 622 l 215 1046 m 67 347 l 93 347 q 101 373 94 360 q 119 397 107 386 q 151 415 132 408 q 199 422 171 422 q 276 399 246 422 q 306 335 306 376 q 297 295 306 311 q 274 269 288 279 q 244 253 261 258 q 211 249 228 249 l 172 249 l 172 222 l 211 222 q 278 194 247 222 q 308 115 308 167 q 298 68 308 88 q 272 37 288 49 q 235 20 256 25 q 197 15 215 15 q 122 36 149 15 q 88 89 94 57 l 61 89 q 100 20 68 50 q 199 -10 132 -10 q 248 -3 224 -10 q 291 19 272 4 q 322 58 310 35 q 333 115 333 82 q 308 197 333 168 q 256 235 283 226 q 280 244 267 236 q 304 264 293 251 q 323 294 315 276 q 331 335 331 313 q 295 415 331 383 q 199 447 260 447 q 140 438 164 447 q 100 413 115 428 q 76 381 85 399 q 67 347 68 364 z "},"":{"ha":383,"x_min":31,"x_max":358,"o":"m 358 543 l 36 543 l 36 515 l 358 515 l 358 543 m 208 1047 l 146 1047 l 146 1024 l 183 1024 l 183 624 l 146 624 l 146 601 l 247 601 l 247 624 l 208 624 l 208 1047 m 276 135 l 276 454 l 257 454 l 31 128 l 31 110 l 250 110 l 250 28 l 225 28 l 225 1 l 301 1 l 301 28 l 276 28 l 276 110 l 317 110 l 317 135 l 276 135 m 250 135 l 67 135 l 250 399 l 250 135 z "},"":{"ha":383,"x_min":31,"x_max":354,"o":"m 354 543 l 31 543 l 31 515 l 354 515 l 354 543 m 65 935 l 93 935 q 124 991 101 967 q 196 1015 147 1015 q 272 991 244 1015 q 300 932 300 967 q 274 866 300 892 q 210 811 247 840 q 165 776 188 794 q 124 738 143 758 q 91 695 106 718 q 71 643 76 672 l 60 590 l 326 590 l 326 617 l 97 617 l 101 639 q 150 724 114 690 q 226 790 186 758 q 295 853 264 821 q 326 932 326 886 q 294 1008 326 975 q 196 1040 261 1040 q 141 1031 164 1040 q 102 1006 118 1021 q 78 972 86 992 q 65 935 69 953 m 65 347 l 92 347 q 99 373 93 360 q 118 397 106 386 q 150 415 131 408 q 197 422 169 422 q 274 399 244 422 q 304 335 304 376 q 295 295 304 311 q 273 269 286 279 q 243 253 260 258 q 210 249 226 249 l 171 249 l 171 222 l 210 222 q 276 194 246 222 q 307 115 307 167 q 297 68 307 88 q 270 37 286 49 q 234 20 254 25 q 196 15 214 15 q 120 36 147 15 q 86 89 93 57 l 60 89 q 99 20 67 50 q 197 -10 131 -10 q 247 -3 222 -10 q 290 19 271 4 q 320 58 308 35 q 332 115 332 82 q 307 197 332 168 q 254 235 282 226 q 278 244 265 236 q 303 264 292 251 q 322 294 314 276 q 329 335 329 313 q 294 415 329 383 q 197 447 258 447 q 138 438 163 447 q 99 413 114 428 q 75 381 83 399 q 65 347 67 364 z "},"":{"ha":383,"x_min":31,"x_max":358,"o":"m 358 543 l 36 543 l 36 515 l 358 515 l 358 543 m 64 946 l 90 946 q 98 972 92 958 q 117 996 104 985 q 149 1014 129 1007 q 196 1021 168 1021 q 273 998 243 1021 q 303 933 303 975 q 294 894 303 910 q 272 867 285 878 q 242 852 258 857 q 208 847 225 847 l 169 847 l 169 821 l 208 821 q 275 793 244 821 q 306 714 306 765 q 295 667 306 686 q 269 635 285 647 q 233 619 253 624 q 194 614 213 614 q 119 635 146 614 q 85 688 92 656 l 58 688 q 97 619 65 649 q 196 589 129 589 q 245 596 221 589 q 288 618 269 603 q 319 657 307 633 q 331 714 331 681 q 306 796 331 767 q 253 833 281 825 q 277 842 264 835 q 301 863 290 850 q 320 893 313 875 q 328 933 328 911 q 292 1014 328 982 q 196 1046 257 1046 q 137 1036 161 1046 q 97 1012 113 1026 q 74 980 82 997 q 64 946 65 963 m 276 135 l 276 454 l 257 454 l 31 128 l 31 110 l 250 110 l 250 28 l 225 28 l 225 1 l 301 1 l 301 28 l 276 28 l 276 110 l 317 110 l 317 135 l 276 135 m 250 135 l 67 135 l 250 399 l 250 135 z "},"":{"ha":1099,"x_min":75,"x_max":1031,"o":"m 1031 957 l 75 957 l 75 1 l 1031 1 l 1031 957 m 988 914 l 988 44 l 118 44 l 118 914 l 988 914 z "},"":{"ha":383,"x_min":31,"x_max":354,"o":"m 354 540 l 31 540 l 31 513 l 354 513 l 354 540 m 210 1046 l 147 1046 l 147 1022 l 185 1022 l 185 622 l 147 622 l 147 600 l 249 600 l 249 622 l 210 622 l 210 1046 m 63 343 l 90 343 q 122 399 99 375 q 193 424 144 424 q 269 399 242 424 q 297 340 297 375 q 271 274 297 300 q 207 219 244 249 q 163 185 185 203 q 122 147 140 167 q 88 103 103 126 q 68 51 74 81 l 57 -1 l 324 -1 l 324 25 l 94 25 l 99 47 q 147 133 111 99 q 224 199 183 167 q 292 262 261 229 q 324 340 324 294 q 291 416 324 383 q 193 449 258 449 q 138 439 161 449 q 99 415 115 429 q 75 381 83 400 q 63 343 67 361 z "},"":{"ha":897,"x_min":49,"x_max":829,"o":"m 110 318 l 49 229 q 97 190 72 217 q 142 129 121 163 q 184 60 164 96 q 219 -7 204 24 q 336 178 268 85 q 484 356 404 271 q 652 516 564 442 q 829 644 740 590 l 829 786 q 708 701 772 756 q 581 580 644 647 q 459 440 518 513 q 351 298 400 367 q 268 172 303 229 q 221 81 233 115 q 169 210 197 150 q 110 318 140 269 z "},"":{"ha":1076,"x_min":51,"x_max":1026,"o":"m 453 379 l 453 554 l 625 554 l 625 379 l 453 379 m 396 751 l 396 611 l 256 611 q 146 651 185 611 q 107 753 107 690 q 148 860 107 822 q 254 899 189 899 q 360 856 325 899 q 396 751 396 813 m 254 554 l 396 554 l 396 379 l 254 379 q 176 365 213 379 q 111 323 139 350 q 67 259 83 296 q 51 179 51 222 q 67 100 51 136 q 108 38 82 64 q 171 -3 135 11 q 250 -18 207 -18 q 338 -3 300 -18 q 402 40 376 13 q 440 103 428 67 q 453 182 453 140 l 453 324 l 625 324 l 625 182 q 638 103 625 140 q 677 40 651 67 q 740 -3 703 13 q 828 -18 778 -18 q 907 -3 871 -18 q 969 39 943 13 q 1011 101 996 65 q 1026 179 1026 138 q 1010 259 1026 222 q 967 323 994 296 q 902 365 939 350 q 824 379 865 379 l 682 379 l 682 554 l 824 554 q 902 569 865 554 q 967 612 939 585 q 1010 676 994 639 q 1026 756 1026 713 q 1011 835 1026 799 q 969 899 996 872 q 906 940 943 925 q 828 954 869 954 q 740 938 778 954 q 677 895 703 922 q 638 831 651 868 q 625 753 625 794 l 625 611 l 453 611 l 453 753 q 440 831 453 794 q 402 895 428 868 q 338 938 376 922 q 250 954 300 954 q 172 938 208 954 q 108 895 135 922 q 67 832 82 868 q 51 756 51 796 q 67 674 51 711 q 109 611 82 638 q 173 569 136 585 q 254 554 210 554 m 822 611 l 682 611 l 682 751 q 717 856 682 813 q 824 899 753 899 q 929 860 888 899 q 971 753 971 822 q 931 651 971 690 q 822 611 892 611 m 256 324 l 396 324 l 396 183 q 360 78 396 121 q 254 36 325 36 q 148 74 189 36 q 107 182 107 111 q 146 284 107 244 q 256 324 185 324 m 682 183 l 682 324 l 822 324 q 931 284 892 324 q 971 182 971 244 q 929 74 971 111 q 824 36 888 36 q 717 78 753 36 q 682 183 682 121 z "},"":{"ha":1099,"x_min":71,"x_max":1035,"o":"m 1035 0 l 553 964 l 71 0 l 1035 0 m 553 871 l 969 39 l 136 39 l 553 871 z "},"":{"ha":383,"x_min":0,"x_max":0,"o":""},"":{"ha":567,"x_min":21,"x_max":544,"o":"m 283 575 l 501 357 l 281 138 l 64 349 l 283 575 m 21 351 l 281 93 l 544 357 l 283 617 l 21 351 z "},"":{"ha":1097,"x_min":117,"x_max":1019,"o":"m 382 736 q 272 716 321 736 q 188 660 222 696 q 135 574 154 624 q 117 465 117 524 q 154 279 117 367 q 244 126 192 192 q 351 23 296 61 q 442 -15 406 -15 q 492 -5 468 -15 q 533 28 515 6 q 558 44 543 39 q 589 50 574 50 q 619 44 604 50 q 643 28 633 39 q 744 -18 681 -18 q 842 12 799 -18 q 921 85 886 42 q 980 175 956 128 q 1019 257 1004 222 q 967 282 992 265 q 922 324 942 299 q 890 381 901 349 q 878 454 878 414 q 887 518 878 490 q 910 567 896 546 q 945 608 925 589 q 989 643 965 626 q 965 681 985 664 q 919 711 946 699 q 861 731 893 724 q 800 738 829 738 q 735 728 765 738 q 683 703 704 719 q 634 673 656 681 q 592 665 613 665 q 554 674 571 665 q 508 703 538 683 q 451 728 485 719 q 382 736 418 736 m 742 929 q 683 912 713 929 q 628 867 653 894 q 587 808 603 840 q 571 743 571 775 q 574 727 571 735 q 588 719 576 719 q 651 740 621 719 q 705 792 682 761 q 742 856 728 822 q 756 917 756 890 q 742 929 756 929 z "}}}
